<?xml version="1.0" encoding="UTF-8"?>
<svg xmlns="http://www.w3.org/2000/svg" xmlns:xlink="http://www.w3.org/1999/xlink" width="756pt" height="410pt" viewBox="0 0 756 410">
<defs>
<g>
<g id="glyph-0-0">
<path d="M 0.390625 0 L 0.390625 -8.609375 L 7.21875 -8.609375 L 7.21875 0 Z M 6.140625 -1.078125 L 6.140625 -7.53125 L 1.46875 -7.53125 L 1.46875 -1.078125 Z M 6.140625 -1.078125 "/>
</g>
<g id="glyph-0-1">
<path d="M 3.25 -8.390625 C 4.332031 -8.390625 5.117188 -7.941406 5.609375 -7.046875 C 5.984375 -6.359375 6.171875 -5.410156 6.171875 -4.203125 C 6.171875 -3.066406 6 -2.125 5.65625 -1.375 C 5.164062 -0.300781 4.359375 0.234375 3.234375 0.234375 C 2.234375 0.234375 1.484375 -0.203125 0.984375 -1.078125 C 0.578125 -1.816406 0.375 -2.800781 0.375 -4.03125 C 0.375 -4.976562 0.5 -5.796875 0.75 -6.484375 C 1.207031 -7.753906 2.039062 -8.390625 3.25 -8.390625 Z M 3.234375 -0.734375 C 3.785156 -0.734375 4.222656 -0.972656 4.546875 -1.453125 C 4.867188 -1.941406 5.03125 -2.847656 5.03125 -4.171875 C 5.03125 -5.117188 4.910156 -5.898438 4.671875 -6.515625 C 4.441406 -7.128906 3.988281 -7.4375 3.3125 -7.4375 C 2.6875 -7.4375 2.226562 -7.144531 1.9375 -6.5625 C 1.65625 -5.976562 1.515625 -5.117188 1.515625 -3.984375 C 1.515625 -3.128906 1.609375 -2.441406 1.796875 -1.921875 C 2.078125 -1.128906 2.554688 -0.734375 3.234375 -0.734375 Z M 3.234375 -0.734375 "/>
</g>
<g id="glyph-0-2">
<path d="M 1.03125 -1.28125 L 2.25 -1.28125 L 2.25 0 L 1.03125 0 Z M 1.03125 -1.28125 "/>
</g>
<g id="glyph-0-3">
<path d="M 0.375 0 C 0.414062 -0.71875 0.566406 -1.34375 0.828125 -1.875 C 1.085938 -2.414062 1.59375 -2.90625 2.34375 -3.34375 L 3.46875 -4 C 3.96875 -4.289062 4.320312 -4.539062 4.53125 -4.75 C 4.851562 -5.070312 5.015625 -5.441406 5.015625 -5.859375 C 5.015625 -6.347656 4.863281 -6.734375 4.5625 -7.015625 C 4.269531 -7.304688 3.882812 -7.453125 3.40625 -7.453125 C 2.675781 -7.453125 2.175781 -7.179688 1.90625 -6.640625 C 1.75 -6.335938 1.664062 -5.929688 1.65625 -5.421875 L 0.578125 -5.421875 C 0.585938 -6.148438 0.722656 -6.742188 0.984375 -7.203125 C 1.441406 -8.015625 2.25 -8.421875 3.40625 -8.421875 C 4.363281 -8.421875 5.0625 -8.160156 5.5 -7.640625 C 5.945312 -7.117188 6.171875 -6.539062 6.171875 -5.90625 C 6.171875 -5.238281 5.9375 -4.664062 5.46875 -4.1875 C 5.195312 -3.90625 4.707031 -3.566406 4 -3.171875 L 3.1875 -2.734375 C 2.8125 -2.523438 2.515625 -2.320312 2.296875 -2.125 C 1.898438 -1.789062 1.648438 -1.414062 1.546875 -1 L 6.140625 -1 L 6.140625 0 Z M 0.375 0 "/>
</g>
<g id="glyph-0-4">
<path d="M 3.96875 -2.96875 L 3.96875 -6.78125 L 1.28125 -2.96875 Z M 3.984375 0 L 3.984375 -2.046875 L 0.3125 -2.046875 L 0.3125 -3.078125 L 4.15625 -8.421875 L 5.046875 -8.421875 L 5.046875 -2.96875 L 6.28125 -2.96875 L 6.28125 -2.046875 L 5.046875 -2.046875 L 5.046875 0 Z M 3.984375 0 "/>
</g>
<g id="glyph-0-5">
<path d="M 3.515625 -8.421875 C 4.453125 -8.421875 5.101562 -8.175781 5.46875 -7.6875 C 5.84375 -7.207031 6.03125 -6.707031 6.03125 -6.1875 L 4.984375 -6.1875 C 4.921875 -6.519531 4.820312 -6.78125 4.6875 -6.96875 C 4.425781 -7.320312 4.039062 -7.5 3.53125 -7.5 C 2.9375 -7.5 2.460938 -7.222656 2.109375 -6.671875 C 1.765625 -6.128906 1.578125 -5.351562 1.546875 -4.34375 C 1.785156 -4.695312 2.085938 -4.960938 2.453125 -5.140625 C 2.785156 -5.296875 3.160156 -5.375 3.578125 -5.375 C 4.285156 -5.375 4.898438 -5.148438 5.421875 -4.703125 C 5.941406 -4.253906 6.203125 -3.582031 6.203125 -2.6875 C 6.203125 -1.925781 5.953125 -1.25 5.453125 -0.65625 C 4.960938 -0.0703125 4.257812 0.21875 3.34375 0.21875 C 2.550781 0.21875 1.867188 -0.078125 1.296875 -0.671875 C 0.734375 -1.273438 0.453125 -2.28125 0.453125 -3.6875 C 0.453125 -4.726562 0.578125 -5.613281 0.828125 -6.34375 C 1.316406 -7.726562 2.210938 -8.421875 3.515625 -8.421875 Z M 3.4375 -0.71875 C 3.988281 -0.71875 4.398438 -0.90625 4.671875 -1.28125 C 4.953125 -1.65625 5.09375 -2.097656 5.09375 -2.609375 C 5.09375 -3.035156 4.96875 -3.441406 4.71875 -3.828125 C 4.476562 -4.210938 4.03125 -4.40625 3.375 -4.40625 C 2.925781 -4.40625 2.53125 -4.253906 2.1875 -3.953125 C 1.84375 -3.660156 1.671875 -3.210938 1.671875 -2.609375 C 1.671875 -2.078125 1.828125 -1.628906 2.140625 -1.265625 C 2.453125 -0.898438 2.882812 -0.71875 3.4375 -0.71875 Z M 3.4375 -0.71875 "/>
</g>
<g id="glyph-0-6">
<path d="M 3.265625 -4.875 C 3.734375 -4.875 4.097656 -5.003906 4.359375 -5.265625 C 4.617188 -5.523438 4.75 -5.832031 4.75 -6.1875 C 4.75 -6.5 4.625 -6.785156 4.375 -7.046875 C 4.125 -7.316406 3.742188 -7.453125 3.234375 -7.453125 C 2.722656 -7.453125 2.351562 -7.316406 2.125 -7.046875 C 1.894531 -6.785156 1.78125 -6.484375 1.78125 -6.140625 C 1.78125 -5.742188 1.925781 -5.429688 2.21875 -5.203125 C 2.519531 -4.984375 2.867188 -4.875 3.265625 -4.875 Z M 3.328125 -0.71875 C 3.816406 -0.71875 4.222656 -0.847656 4.546875 -1.109375 C 4.867188 -1.378906 5.03125 -1.773438 5.03125 -2.296875 C 5.03125 -2.835938 4.863281 -3.25 4.53125 -3.53125 C 4.195312 -3.8125 3.769531 -3.953125 3.25 -3.953125 C 2.75 -3.953125 2.335938 -3.804688 2.015625 -3.515625 C 1.703125 -3.234375 1.546875 -2.835938 1.546875 -2.328125 C 1.546875 -1.890625 1.691406 -1.507812 1.984375 -1.1875 C 2.273438 -0.875 2.722656 -0.71875 3.328125 -0.71875 Z M 1.828125 -4.46875 C 1.535156 -4.59375 1.304688 -4.738281 1.140625 -4.90625 C 0.835938 -5.21875 0.6875 -5.625 0.6875 -6.125 C 0.6875 -6.75 0.910156 -7.285156 1.359375 -7.734375 C 1.816406 -8.191406 2.457031 -8.421875 3.28125 -8.421875 C 4.09375 -8.421875 4.722656 -8.207031 5.171875 -7.78125 C 5.628906 -7.351562 5.859375 -6.859375 5.859375 -6.296875 C 5.859375 -5.773438 5.726562 -5.347656 5.46875 -5.015625 C 5.320312 -4.835938 5.09375 -4.660156 4.78125 -4.484375 C 5.125 -4.328125 5.394531 -4.144531 5.59375 -3.9375 C 5.96875 -3.539062 6.15625 -3.03125 6.15625 -2.40625 C 6.15625 -1.664062 5.90625 -1.039062 5.40625 -0.53125 C 4.914062 -0.0195312 4.21875 0.234375 3.3125 0.234375 C 2.488281 0.234375 1.796875 0.0117188 1.234375 -0.421875 C 0.671875 -0.867188 0.390625 -1.515625 0.390625 -2.359375 C 0.390625 -2.847656 0.507812 -3.273438 0.75 -3.640625 C 0.988281 -4.003906 1.347656 -4.28125 1.828125 -4.46875 Z M 1.828125 -4.46875 "/>
</g>
<g id="glyph-0-7">
<path d="M 1.15625 -5.9375 L 1.15625 -6.75 C 1.914062 -6.820312 2.441406 -6.945312 2.734375 -7.125 C 3.035156 -7.300781 3.265625 -7.710938 3.421875 -8.359375 L 4.25 -8.359375 L 4.25 0 L 3.125 0 L 3.125 -5.9375 Z M 1.15625 -5.9375 "/>
</g>
<g id="glyph-0-8">
<path d="M 4.921875 -4.671875 C 5.460938 -4.671875 5.890625 -4.78125 6.203125 -5 C 6.523438 -5.21875 6.6875 -5.609375 6.6875 -6.171875 C 6.6875 -6.785156 6.46875 -7.207031 6.03125 -7.4375 C 5.789062 -7.550781 5.46875 -7.609375 5.0625 -7.609375 L 2.21875 -7.609375 L 2.21875 -4.671875 Z M 1.0625 -8.609375 L 5.046875 -8.609375 C 5.703125 -8.609375 6.238281 -8.515625 6.65625 -8.328125 C 7.46875 -7.953125 7.875 -7.269531 7.875 -6.28125 C 7.875 -5.769531 7.765625 -5.347656 7.546875 -5.015625 C 7.335938 -4.691406 7.039062 -4.429688 6.65625 -4.234375 C 7 -4.097656 7.253906 -3.914062 7.421875 -3.6875 C 7.585938 -3.46875 7.679688 -3.109375 7.703125 -2.609375 L 7.75 -1.453125 C 7.757812 -1.128906 7.785156 -0.882812 7.828125 -0.71875 C 7.898438 -0.445312 8.023438 -0.269531 8.203125 -0.1875 L 8.203125 0 L 6.78125 0 C 6.738281 -0.0703125 6.703125 -0.164062 6.671875 -0.28125 C 6.648438 -0.40625 6.632812 -0.632812 6.625 -0.96875 L 6.546875 -2.40625 C 6.523438 -2.96875 6.316406 -3.34375 5.921875 -3.53125 C 5.703125 -3.632812 5.351562 -3.6875 4.875 -3.6875 L 2.21875 -3.6875 L 2.21875 0 L 1.0625 0 Z M 1.0625 -8.609375 "/>
</g>
<g id="glyph-0-9">
<path d="M 1.828125 -6.28125 L 1.828125 -2.109375 C 1.828125 -1.785156 1.878906 -1.523438 1.984375 -1.328125 C 2.171875 -0.953125 2.519531 -0.765625 3.03125 -0.765625 C 3.757812 -0.765625 4.257812 -1.09375 4.53125 -1.75 C 4.675781 -2.101562 4.75 -2.582031 4.75 -3.1875 L 4.75 -6.28125 L 5.796875 -6.28125 L 5.796875 0 L 4.8125 0 L 4.8125 -0.921875 C 4.675781 -0.679688 4.507812 -0.484375 4.3125 -0.328125 C 3.90625 0.00390625 3.414062 0.171875 2.84375 0.171875 C 1.945312 0.171875 1.335938 -0.128906 1.015625 -0.734375 C 0.835938 -1.046875 0.75 -1.472656 0.75 -2.015625 L 0.75 -6.28125 Z M 3.28125 -6.421875 Z M 3.28125 -6.421875 "/>
</g>
<g id="glyph-0-10">
<path d="M 0.78125 -6.28125 L 1.78125 -6.28125 L 1.78125 -5.390625 C 2.070312 -5.753906 2.382812 -6.015625 2.71875 -6.171875 C 3.050781 -6.335938 3.421875 -6.421875 3.828125 -6.421875 C 4.710938 -6.421875 5.3125 -6.109375 5.625 -5.484375 C 5.800781 -5.140625 5.890625 -4.65625 5.890625 -4.03125 L 5.890625 0 L 4.8125 0 L 4.8125 -3.953125 C 4.8125 -4.335938 4.753906 -4.644531 4.640625 -4.875 C 4.453125 -5.269531 4.113281 -5.46875 3.625 -5.46875 C 3.375 -5.46875 3.171875 -5.441406 3.015625 -5.390625 C 2.722656 -5.304688 2.46875 -5.132812 2.25 -4.875 C 2.070312 -4.664062 1.957031 -4.453125 1.90625 -4.234375 C 1.851562 -4.015625 1.828125 -3.695312 1.828125 -3.28125 L 1.828125 0 L 0.78125 0 Z M 3.25 -6.421875 Z M 3.25 -6.421875 "/>
</g>
<g id="glyph-0-11">
<path d="M 0.984375 -8.03125 L 2.046875 -8.03125 L 2.046875 -6.28125 L 3.046875 -6.28125 L 3.046875 -5.421875 L 2.046875 -5.421875 L 2.046875 -1.3125 C 2.046875 -1.09375 2.125 -0.945312 2.28125 -0.875 C 2.351562 -0.832031 2.488281 -0.8125 2.6875 -0.8125 C 2.738281 -0.8125 2.789062 -0.8125 2.84375 -0.8125 C 2.90625 -0.820312 2.972656 -0.828125 3.046875 -0.828125 L 3.046875 0 C 2.929688 0.03125 2.804688 0.0507812 2.671875 0.0625 C 2.546875 0.0820312 2.40625 0.09375 2.25 0.09375 C 1.757812 0.09375 1.425781 -0.03125 1.25 -0.28125 C 1.070312 -0.53125 0.984375 -0.859375 0.984375 -1.265625 L 0.984375 -5.421875 L 0.140625 -5.421875 L 0.140625 -6.28125 L 0.984375 -6.28125 Z M 0.984375 -8.03125 "/>
</g>
<g id="glyph-0-12">
<path d="M 0.78125 -6.25 L 1.84375 -6.25 L 1.84375 0 L 0.78125 0 Z M 0.78125 -8.609375 L 1.84375 -8.609375 L 1.84375 -7.40625 L 0.78125 -7.40625 Z M 0.78125 -8.609375 "/>
</g>
<g id="glyph-0-13">
<path d="M 0.78125 -6.28125 L 1.8125 -6.28125 L 1.8125 -5.390625 C 2.0625 -5.691406 2.289062 -5.914062 2.5 -6.0625 C 2.84375 -6.300781 3.238281 -6.421875 3.6875 -6.421875 C 4.1875 -6.421875 4.585938 -6.296875 4.890625 -6.046875 C 5.054688 -5.910156 5.210938 -5.703125 5.359375 -5.421875 C 5.585938 -5.765625 5.859375 -6.015625 6.171875 -6.171875 C 6.492188 -6.335938 6.851562 -6.421875 7.25 -6.421875 C 8.09375 -6.421875 8.664062 -6.113281 8.96875 -5.5 C 9.132812 -5.175781 9.21875 -4.734375 9.21875 -4.171875 L 9.21875 0 L 8.125 0 L 8.125 -4.359375 C 8.125 -4.773438 8.019531 -5.0625 7.8125 -5.21875 C 7.601562 -5.375 7.347656 -5.453125 7.046875 -5.453125 C 6.628906 -5.453125 6.269531 -5.3125 5.96875 -5.03125 C 5.675781 -4.757812 5.53125 -4.300781 5.53125 -3.65625 L 5.53125 0 L 4.453125 0 L 4.453125 -4.09375 C 4.453125 -4.519531 4.398438 -4.832031 4.296875 -5.03125 C 4.140625 -5.320312 3.84375 -5.46875 3.40625 -5.46875 C 3.007812 -5.46875 2.644531 -5.3125 2.3125 -5 C 1.988281 -4.695312 1.828125 -4.140625 1.828125 -3.328125 L 1.828125 0 L 0.78125 0 Z M 0.78125 -6.28125 "/>
</g>
<g id="glyph-0-14">
<path d="M 3.390625 -6.421875 C 3.835938 -6.421875 4.269531 -6.316406 4.6875 -6.109375 C 5.101562 -5.898438 5.421875 -5.628906 5.640625 -5.296875 C 5.847656 -4.972656 5.988281 -4.601562 6.0625 -4.1875 C 6.125 -3.894531 6.15625 -3.429688 6.15625 -2.796875 L 1.546875 -2.796875 C 1.566406 -2.160156 1.71875 -1.648438 2 -1.265625 C 2.28125 -0.878906 2.71875 -0.6875 3.3125 -0.6875 C 3.863281 -0.6875 4.300781 -0.867188 4.625 -1.234375 C 4.8125 -1.441406 4.945312 -1.6875 5.03125 -1.96875 L 6.0625 -1.96875 C 6.039062 -1.738281 5.953125 -1.484375 5.796875 -1.203125 C 5.640625 -0.921875 5.46875 -0.6875 5.28125 -0.5 C 4.957031 -0.1875 4.554688 0.0195312 4.078125 0.125 C 3.828125 0.1875 3.539062 0.21875 3.21875 0.21875 C 2.4375 0.21875 1.773438 -0.0625 1.234375 -0.625 C 0.691406 -1.195312 0.421875 -1.992188 0.421875 -3.015625 C 0.421875 -4.023438 0.691406 -4.84375 1.234375 -5.46875 C 1.785156 -6.101562 2.503906 -6.421875 3.390625 -6.421875 Z M 5.0625 -3.640625 C 5.019531 -4.097656 4.921875 -4.460938 4.765625 -4.734375 C 4.484375 -5.242188 4.003906 -5.5 3.328125 -5.5 C 2.835938 -5.5 2.425781 -5.320312 2.09375 -4.96875 C 1.769531 -4.625 1.597656 -4.179688 1.578125 -3.640625 Z M 3.28125 -6.421875 Z M 3.28125 -6.421875 "/>
</g>
<g id="glyph-0-15">
</g>
<g id="glyph-0-16">
<path d="M 0.796875 -6.28125 L 1.8125 -6.28125 L 1.8125 -5.1875 C 1.882812 -5.40625 2.082031 -5.664062 2.40625 -5.96875 C 2.726562 -6.269531 3.097656 -6.421875 3.515625 -6.421875 C 3.535156 -6.421875 3.566406 -6.414062 3.609375 -6.40625 C 3.660156 -6.40625 3.742188 -6.398438 3.859375 -6.390625 L 3.859375 -5.28125 C 3.796875 -5.289062 3.738281 -5.296875 3.6875 -5.296875 C 3.632812 -5.296875 3.578125 -5.296875 3.515625 -5.296875 C 2.984375 -5.296875 2.570312 -5.125 2.28125 -4.78125 C 2 -4.445312 1.859375 -4.054688 1.859375 -3.609375 L 1.859375 0 L 0.796875 0 Z M 0.796875 -6.28125 "/>
</g>
<g id="glyph-0-17">
<path d="M 1.578125 -1.671875 C 1.578125 -1.367188 1.6875 -1.128906 1.90625 -0.953125 C 2.132812 -0.773438 2.398438 -0.6875 2.703125 -0.6875 C 3.078125 -0.6875 3.4375 -0.769531 3.78125 -0.9375 C 4.375 -1.226562 4.671875 -1.695312 4.671875 -2.34375 L 4.671875 -3.1875 C 4.535156 -3.113281 4.363281 -3.046875 4.15625 -2.984375 C 3.957031 -2.929688 3.757812 -2.894531 3.5625 -2.875 L 2.9375 -2.796875 C 2.550781 -2.742188 2.257812 -2.660156 2.0625 -2.546875 C 1.738281 -2.367188 1.578125 -2.078125 1.578125 -1.671875 Z M 4.140625 -3.796875 C 4.378906 -3.828125 4.539062 -3.929688 4.625 -4.109375 C 4.664062 -4.203125 4.6875 -4.335938 4.6875 -4.515625 C 4.6875 -4.867188 4.554688 -5.125 4.296875 -5.28125 C 4.046875 -5.445312 3.6875 -5.53125 3.21875 -5.53125 C 2.664062 -5.53125 2.273438 -5.382812 2.046875 -5.09375 C 1.910156 -4.925781 1.820312 -4.679688 1.78125 -4.359375 L 0.796875 -4.359375 C 0.816406 -5.128906 1.066406 -5.664062 1.546875 -5.96875 C 2.035156 -6.269531 2.597656 -6.421875 3.234375 -6.421875 C 3.972656 -6.421875 4.570312 -6.28125 5.03125 -6 C 5.488281 -5.71875 5.71875 -5.28125 5.71875 -4.6875 L 5.71875 -1.078125 C 5.71875 -0.972656 5.738281 -0.882812 5.78125 -0.8125 C 5.832031 -0.75 5.929688 -0.71875 6.078125 -0.71875 C 6.117188 -0.71875 6.164062 -0.71875 6.21875 -0.71875 C 6.28125 -0.726562 6.347656 -0.738281 6.421875 -0.75 L 6.421875 0.03125 C 6.253906 0.0703125 6.125 0.0976562 6.03125 0.109375 C 5.945312 0.128906 5.832031 0.140625 5.6875 0.140625 C 5.320312 0.140625 5.0625 0.0078125 4.90625 -0.25 C 4.8125 -0.382812 4.75 -0.578125 4.71875 -0.828125 C 4.5 -0.546875 4.1875 -0.300781 3.78125 -0.09375 C 3.382812 0.113281 2.945312 0.21875 2.46875 0.21875 C 1.882812 0.21875 1.40625 0.0390625 1.03125 -0.3125 C 0.664062 -0.664062 0.484375 -1.109375 0.484375 -1.640625 C 0.484375 -2.222656 0.664062 -2.675781 1.03125 -3 C 1.394531 -3.320312 1.867188 -3.519531 2.453125 -3.59375 Z M 3.265625 -6.421875 Z M 3.265625 -6.421875 "/>
</g>
<g id="glyph-0-18">
<path d="M 3.265625 -0.6875 C 3.960938 -0.6875 4.441406 -0.945312 4.703125 -1.46875 C 4.960938 -2 5.09375 -2.585938 5.09375 -3.234375 C 5.09375 -3.828125 5 -4.304688 4.8125 -4.671875 C 4.507812 -5.242188 4 -5.53125 3.28125 -5.53125 C 2.632812 -5.53125 2.164062 -5.285156 1.875 -4.796875 C 1.582031 -4.304688 1.4375 -3.710938 1.4375 -3.015625 C 1.4375 -2.347656 1.582031 -1.789062 1.875 -1.34375 C 2.164062 -0.90625 2.628906 -0.6875 3.265625 -0.6875 Z M 3.3125 -6.453125 C 4.113281 -6.453125 4.789062 -6.179688 5.34375 -5.640625 C 5.90625 -5.109375 6.1875 -4.316406 6.1875 -3.265625 C 6.1875 -2.253906 5.941406 -1.414062 5.453125 -0.75 C 4.960938 -0.09375 4.203125 0.234375 3.171875 0.234375 C 2.304688 0.234375 1.617188 -0.0546875 1.109375 -0.640625 C 0.597656 -1.234375 0.34375 -2.019531 0.34375 -3 C 0.34375 -4.050781 0.609375 -4.890625 1.140625 -5.515625 C 1.679688 -6.140625 2.40625 -6.453125 3.3125 -6.453125 Z M 3.265625 -6.421875 Z M 3.265625 -6.421875 "/>
</g>
<g id="glyph-0-19">
<path d="M 1.328125 -6.1875 L 2.5625 -6.1875 L 2.5625 -4.921875 L 1.328125 -4.921875 Z M 1.328125 -1.28125 L 2.5625 -1.28125 L 2.5625 0 L 1.328125 0 Z M 1.328125 -1.28125 "/>
</g>
<g id="glyph-0-20">
<path d="M 1.40625 -1.96875 C 1.4375 -1.613281 1.523438 -1.34375 1.671875 -1.15625 C 1.929688 -0.820312 2.390625 -0.65625 3.046875 -0.65625 C 3.441406 -0.65625 3.785156 -0.738281 4.078125 -0.90625 C 4.378906 -1.070312 4.53125 -1.332031 4.53125 -1.6875 C 4.53125 -1.957031 4.410156 -2.164062 4.171875 -2.3125 C 4.015625 -2.394531 3.710938 -2.492188 3.265625 -2.609375 L 2.421875 -2.8125 C 1.890625 -2.945312 1.5 -3.097656 1.25 -3.265625 C 0.789062 -3.546875 0.5625 -3.941406 0.5625 -4.453125 C 0.5625 -5.046875 0.773438 -5.523438 1.203125 -5.890625 C 1.628906 -6.253906 2.207031 -6.4375 2.9375 -6.4375 C 3.875 -6.4375 4.550781 -6.160156 4.96875 -5.609375 C 5.238281 -5.253906 5.367188 -4.875 5.359375 -4.46875 L 4.359375 -4.46875 C 4.335938 -4.707031 4.253906 -4.925781 4.109375 -5.125 C 3.867188 -5.394531 3.445312 -5.53125 2.84375 -5.53125 C 2.445312 -5.53125 2.144531 -5.453125 1.9375 -5.296875 C 1.738281 -5.148438 1.640625 -4.953125 1.640625 -4.703125 C 1.640625 -4.429688 1.773438 -4.210938 2.046875 -4.046875 C 2.203125 -3.953125 2.429688 -3.867188 2.734375 -3.796875 L 3.421875 -3.625 C 4.179688 -3.4375 4.691406 -3.257812 4.953125 -3.09375 C 5.359375 -2.820312 5.5625 -2.394531 5.5625 -1.8125 C 5.5625 -1.257812 5.347656 -0.78125 4.921875 -0.375 C 4.503906 0.0273438 3.863281 0.234375 3 0.234375 C 2.0625 0.234375 1.394531 0.0234375 1 -0.390625 C 0.613281 -0.816406 0.410156 -1.34375 0.390625 -1.96875 Z M 2.953125 -6.421875 Z M 2.953125 -6.421875 "/>
</g>
<g id="glyph-0-21">
<path d="M 3.1875 -6.453125 C 3.894531 -6.453125 4.46875 -6.28125 4.90625 -5.9375 C 5.351562 -5.59375 5.625 -5.003906 5.71875 -4.171875 L 4.6875 -4.171875 C 4.625 -4.554688 4.484375 -4.875 4.265625 -5.125 C 4.046875 -5.382812 3.6875 -5.515625 3.1875 -5.515625 C 2.519531 -5.515625 2.039062 -5.1875 1.75 -4.53125 C 1.5625 -4.101562 1.46875 -3.578125 1.46875 -2.953125 C 1.46875 -2.328125 1.597656 -1.796875 1.859375 -1.359375 C 2.128906 -0.929688 2.550781 -0.71875 3.125 -0.71875 C 3.5625 -0.71875 3.90625 -0.851562 4.15625 -1.125 C 4.414062 -1.394531 4.59375 -1.757812 4.6875 -2.21875 L 5.71875 -2.21875 C 5.601562 -1.382812 5.3125 -0.773438 4.84375 -0.390625 C 4.375 -0.00390625 3.773438 0.1875 3.046875 0.1875 C 2.222656 0.1875 1.566406 -0.113281 1.078125 -0.71875 C 0.585938 -1.320312 0.34375 -2.070312 0.34375 -2.96875 C 0.34375 -4.070312 0.609375 -4.925781 1.140625 -5.53125 C 1.679688 -6.144531 2.363281 -6.453125 3.1875 -6.453125 Z M 3.03125 -6.421875 Z M 3.03125 -6.421875 "/>
</g>
<g id="glyph-0-22">
<path d="M 1.4375 -3.0625 C 1.4375 -2.394531 1.578125 -1.832031 1.859375 -1.375 C 2.148438 -0.925781 2.609375 -0.703125 3.234375 -0.703125 C 3.722656 -0.703125 4.125 -0.910156 4.4375 -1.328125 C 4.757812 -1.742188 4.921875 -2.347656 4.921875 -3.140625 C 4.921875 -3.929688 4.753906 -4.515625 4.421875 -4.890625 C 4.097656 -5.273438 3.703125 -5.46875 3.234375 -5.46875 C 2.703125 -5.46875 2.269531 -5.265625 1.9375 -4.859375 C 1.601562 -4.453125 1.4375 -3.851562 1.4375 -3.0625 Z M 3.03125 -6.390625 C 3.507812 -6.390625 3.910156 -6.285156 4.234375 -6.078125 C 4.421875 -5.960938 4.632812 -5.757812 4.875 -5.46875 L 4.875 -8.640625 L 5.890625 -8.640625 L 5.890625 0 L 4.9375 0 L 4.9375 -0.875 C 4.695312 -0.488281 4.40625 -0.207031 4.0625 -0.03125 C 3.726562 0.132812 3.34375 0.21875 2.90625 0.21875 C 2.207031 0.21875 1.601562 -0.0703125 1.09375 -0.65625 C 0.582031 -1.25 0.328125 -2.03125 0.328125 -3 C 0.328125 -3.914062 0.5625 -4.707031 1.03125 -5.375 C 1.5 -6.050781 2.164062 -6.390625 3.03125 -6.390625 Z M 3.03125 -6.390625 "/>
</g>
<g id="glyph-0-23">
<path d="M 2.734375 -8.609375 L 3.625 -8.609375 L 0.890625 0 L 0 0 Z M 2.734375 -8.609375 "/>
</g>
<g id="glyph-0-24">
<path d="M 1.03125 -7.234375 C 1.050781 -7.671875 1.128906 -7.988281 1.265625 -8.1875 C 1.515625 -8.550781 1.988281 -8.734375 2.6875 -8.734375 C 2.757812 -8.734375 2.828125 -8.726562 2.890625 -8.71875 C 2.960938 -8.71875 3.046875 -8.710938 3.140625 -8.703125 L 3.140625 -7.75 C 3.023438 -7.757812 2.941406 -7.765625 2.890625 -7.765625 C 2.847656 -7.765625 2.804688 -7.765625 2.765625 -7.765625 C 2.441406 -7.765625 2.25 -7.679688 2.1875 -7.515625 C 2.125 -7.347656 2.09375 -6.925781 2.09375 -6.25 L 3.140625 -6.25 L 3.140625 -5.421875 L 2.078125 -5.421875 L 2.078125 0 L 1.03125 0 L 1.03125 -5.421875 L 0.171875 -5.421875 L 0.171875 -6.25 L 1.03125 -6.25 Z M 1.03125 -7.234375 "/>
</g>
<g id="glyph-0-25">
<path d="M 0.796875 -8.609375 L 1.859375 -8.609375 L 1.859375 0 L 0.796875 0 Z M 0.796875 -8.609375 "/>
</g>
<g id="glyph-0-26">
<path d="M 1 1.21875 C 1.269531 1.175781 1.457031 0.988281 1.5625 0.65625 C 1.625 0.476562 1.65625 0.304688 1.65625 0.140625 C 1.65625 0.117188 1.648438 0.0976562 1.640625 0.078125 C 1.640625 0.0546875 1.640625 0.03125 1.640625 0 L 1 0 L 1 -1.28125 L 2.25 -1.28125 L 2.25 -0.09375 C 2.25 0.375 2.15625 0.78125 1.96875 1.125 C 1.78125 1.476562 1.457031 1.695312 1 1.78125 Z M 1 1.21875 "/>
</g>
<g id="glyph-0-27">
<path d="M 2.984375 -6.390625 C 3.484375 -6.390625 3.914062 -6.269531 4.28125 -6.03125 C 4.476562 -5.882812 4.679688 -5.679688 4.890625 -5.421875 L 4.890625 -6.21875 L 5.859375 -6.21875 L 5.859375 -0.515625 C 5.859375 0.285156 5.742188 0.914062 5.515625 1.375 C 5.078125 2.226562 4.25 2.65625 3.03125 2.65625 C 2.351562 2.65625 1.785156 2.503906 1.328125 2.203125 C 0.867188 1.898438 0.609375 1.425781 0.546875 0.78125 L 1.625 0.78125 C 1.675781 1.0625 1.773438 1.28125 1.921875 1.4375 C 2.160156 1.664062 2.535156 1.78125 3.046875 1.78125 C 3.859375 1.78125 4.390625 1.492188 4.640625 0.921875 C 4.785156 0.585938 4.851562 -0.0078125 4.84375 -0.875 C 4.632812 -0.550781 4.378906 -0.3125 4.078125 -0.15625 C 3.785156 0 3.394531 0.078125 2.90625 0.078125 C 2.226562 0.078125 1.632812 -0.160156 1.125 -0.640625 C 0.613281 -1.128906 0.359375 -1.929688 0.359375 -3.046875 C 0.359375 -4.097656 0.613281 -4.914062 1.125 -5.5 C 1.644531 -6.09375 2.265625 -6.390625 2.984375 -6.390625 Z M 4.890625 -3.171875 C 4.890625 -3.941406 4.726562 -4.515625 4.40625 -4.890625 C 4.082031 -5.265625 3.675781 -5.453125 3.1875 -5.453125 C 2.4375 -5.453125 1.925781 -5.101562 1.65625 -4.40625 C 1.507812 -4.039062 1.4375 -3.554688 1.4375 -2.953125 C 1.4375 -2.242188 1.578125 -1.703125 1.859375 -1.328125 C 2.148438 -0.960938 2.539062 -0.78125 3.03125 -0.78125 C 3.789062 -0.78125 4.320312 -1.125 4.625 -1.8125 C 4.800781 -2.195312 4.890625 -2.648438 4.890625 -3.171875 Z M 3.109375 -6.421875 Z M 3.109375 -6.421875 "/>
</g>
<g id="glyph-1-0">
<path d="M 1.078125 -10.375 L 9.4375 -10.375 L 9.4375 0 L 1.078125 0 Z M 8.140625 -1.296875 L 8.140625 -9.078125 L 2.375 -9.078125 L 2.375 -1.296875 Z M 8.140625 -1.296875 "/>
</g>
<g id="glyph-1-1">
<path d="M 5.5 -3.734375 L 3.296875 -3.734375 L 3.296875 0 L 1.140625 0 L 1.140625 -10.375 L 5.65625 -10.375 C 6.695312 -10.375 7.523438 -10.101562 8.140625 -9.5625 C 8.765625 -9.03125 9.078125 -8.203125 9.078125 -7.078125 C 9.078125 -5.859375 8.765625 -4.992188 8.140625 -4.484375 C 7.523438 -3.984375 6.644531 -3.734375 5.5 -3.734375 Z M 6.515625 -5.890625 C 6.796875 -6.140625 6.9375 -6.53125 6.9375 -7.0625 C 6.9375 -7.601562 6.789062 -7.988281 6.5 -8.21875 C 6.21875 -8.445312 5.820312 -8.5625 5.3125 -8.5625 L 3.296875 -8.5625 L 3.296875 -5.515625 L 5.3125 -5.515625 C 5.820312 -5.515625 6.222656 -5.640625 6.515625 -5.890625 Z M 6.515625 -5.890625 "/>
</g>
<g id="glyph-1-2">
<path d="M 1.21875 -6.84375 C 1.75 -7.507812 2.660156 -7.84375 3.953125 -7.84375 C 4.796875 -7.84375 5.539062 -7.675781 6.1875 -7.34375 C 6.84375 -7.007812 7.171875 -6.382812 7.171875 -5.46875 L 7.171875 -1.953125 C 7.171875 -1.703125 7.175781 -1.40625 7.1875 -1.0625 C 7.195312 -0.800781 7.234375 -0.625 7.296875 -0.53125 C 7.367188 -0.4375 7.46875 -0.359375 7.59375 -0.296875 L 7.59375 0 L 5.421875 0 C 5.359375 -0.15625 5.3125 -0.300781 5.28125 -0.4375 C 5.257812 -0.570312 5.242188 -0.726562 5.234375 -0.90625 C 4.953125 -0.601562 4.632812 -0.347656 4.28125 -0.140625 C 3.84375 0.105469 3.351562 0.234375 2.8125 0.234375 C 2.113281 0.234375 1.539062 0.0351562 1.09375 -0.359375 C 0.644531 -0.753906 0.421875 -1.316406 0.421875 -2.046875 C 0.421875 -2.984375 0.78125 -3.664062 1.5 -4.09375 C 1.90625 -4.320312 2.492188 -4.484375 3.265625 -4.578125 L 3.953125 -4.65625 C 4.316406 -4.707031 4.578125 -4.769531 4.734375 -4.84375 C 5.023438 -4.957031 5.171875 -5.144531 5.171875 -5.40625 C 5.171875 -5.71875 5.0625 -5.929688 4.84375 -6.046875 C 4.625 -6.171875 4.304688 -6.234375 3.890625 -6.234375 C 3.410156 -6.234375 3.070312 -6.117188 2.875 -5.890625 C 2.738281 -5.710938 2.644531 -5.476562 2.59375 -5.1875 L 0.65625 -5.1875 C 0.695312 -5.851562 0.882812 -6.40625 1.21875 -6.84375 Z M 2.71875 -1.453125 C 2.90625 -1.296875 3.132812 -1.21875 3.40625 -1.21875 C 3.832031 -1.21875 4.226562 -1.34375 4.59375 -1.59375 C 4.957031 -1.851562 5.144531 -2.316406 5.15625 -2.984375 L 5.15625 -3.734375 C 5.03125 -3.648438 4.90625 -3.582031 4.78125 -3.53125 C 4.65625 -3.476562 4.476562 -3.429688 4.25 -3.390625 L 3.796875 -3.3125 C 3.378906 -3.238281 3.078125 -3.144531 2.890625 -3.03125 C 2.578125 -2.851562 2.421875 -2.570312 2.421875 -2.1875 C 2.421875 -1.84375 2.519531 -1.597656 2.71875 -1.453125 Z M 2.71875 -1.453125 "/>
</g>
<g id="glyph-1-3">
<path d="M 3 -7.671875 L 3 0 L 0.96875 0 L 0.96875 -7.671875 Z M 3 -10.4375 L 3 -8.578125 L 0.96875 -8.578125 L 0.96875 -10.4375 Z M 3 -10.4375 "/>
</g>
<g id="glyph-1-4">
<path d="M 4.796875 -5.8125 C 3.984375 -5.8125 3.441406 -5.550781 3.171875 -5.03125 C 3.015625 -4.738281 2.9375 -4.285156 2.9375 -3.671875 L 2.9375 0 L 0.921875 0 L 0.921875 -7.671875 L 2.828125 -7.671875 L 2.828125 -6.328125 C 3.140625 -6.835938 3.410156 -7.1875 3.640625 -7.375 C 4.015625 -7.6875 4.5 -7.84375 5.09375 -7.84375 C 5.132812 -7.84375 5.164062 -7.84375 5.1875 -7.84375 C 5.21875 -7.84375 5.273438 -7.84375 5.359375 -7.84375 L 5.359375 -5.78125 C 5.234375 -5.789062 5.117188 -5.796875 5.015625 -5.796875 C 4.921875 -5.804688 4.847656 -5.8125 4.796875 -5.8125 Z M 4.796875 -5.8125 "/>
</g>
<g id="glyph-1-5">
<path d="M 7.5 -2.25 C 7.445312 -1.789062 7.207031 -1.328125 6.78125 -0.859375 C 6.125 -0.117188 5.207031 0.25 4.03125 0.25 C 3.050781 0.25 2.1875 -0.0625 1.4375 -0.6875 C 0.695312 -1.3125 0.328125 -2.332031 0.328125 -3.75 C 0.328125 -5.082031 0.660156 -6.101562 1.328125 -6.8125 C 2.003906 -7.519531 2.878906 -7.875 3.953125 -7.875 C 4.597656 -7.875 5.175781 -7.753906 5.6875 -7.515625 C 6.195312 -7.273438 6.617188 -6.894531 6.953125 -6.375 C 7.253906 -5.925781 7.445312 -5.398438 7.53125 -4.796875 C 7.582031 -4.441406 7.601562 -3.9375 7.59375 -3.28125 L 2.34375 -3.28125 C 2.375 -2.507812 2.617188 -1.96875 3.078125 -1.65625 C 3.347656 -1.46875 3.679688 -1.375 4.078125 -1.375 C 4.484375 -1.375 4.816406 -1.488281 5.078125 -1.71875 C 5.222656 -1.84375 5.347656 -2.019531 5.453125 -2.25 Z M 5.515625 -4.59375 C 5.484375 -5.125 5.320312 -5.523438 5.03125 -5.796875 C 4.738281 -6.078125 4.378906 -6.21875 3.953125 -6.21875 C 3.492188 -6.21875 3.132812 -6.070312 2.875 -5.78125 C 2.625 -5.488281 2.46875 -5.09375 2.40625 -4.59375 Z M 5.515625 -4.59375 "/>
</g>
<g id="glyph-1-6">
<path d="M 7.90625 -10.359375 L 7.90625 0 L 5.96875 0 L 5.96875 -1.0625 C 5.675781 -0.601562 5.347656 -0.269531 4.984375 -0.0625 C 4.617188 0.132812 4.164062 0.234375 3.625 0.234375 C 2.726562 0.234375 1.972656 -0.125 1.359375 -0.84375 C 0.742188 -1.570312 0.4375 -2.503906 0.4375 -3.640625 C 0.4375 -4.941406 0.738281 -5.96875 1.34375 -6.71875 C 1.945312 -7.46875 2.753906 -7.84375 3.765625 -7.84375 C 4.222656 -7.84375 4.632812 -7.738281 5 -7.53125 C 5.363281 -7.332031 5.65625 -7.054688 5.875 -6.703125 L 5.875 -10.359375 Z M 2.515625 -3.78125 C 2.515625 -3.070312 2.65625 -2.507812 2.9375 -2.09375 C 3.207031 -1.664062 3.628906 -1.453125 4.203125 -1.453125 C 4.765625 -1.453125 5.191406 -1.660156 5.484375 -2.078125 C 5.785156 -2.503906 5.9375 -3.050781 5.9375 -3.71875 C 5.9375 -4.65625 5.695312 -5.328125 5.21875 -5.734375 C 4.9375 -5.972656 4.601562 -6.09375 4.21875 -6.09375 C 3.625 -6.09375 3.191406 -5.867188 2.921875 -5.421875 C 2.648438 -4.984375 2.515625 -4.4375 2.515625 -3.78125 Z M 2.515625 -3.78125 "/>
</g>
<g id="glyph-1-7">
</g>
<g id="glyph-1-8">
<path d="M 5.5 -4.0625 L 3.265625 -4.0625 L 3.265625 0 L 1.140625 0 L 1.140625 -10.375 L 6.234375 -10.375 C 6.960938 -10.351562 7.519531 -10.257812 7.90625 -10.09375 C 8.300781 -9.9375 8.632812 -9.695312 8.90625 -9.375 C 9.132812 -9.113281 9.3125 -8.820312 9.4375 -8.5 C 9.570312 -8.1875 9.640625 -7.828125 9.640625 -7.421875 C 9.640625 -6.921875 9.515625 -6.429688 9.265625 -5.953125 C 9.015625 -5.484375 8.601562 -5.148438 8.03125 -4.953125 C 8.507812 -4.753906 8.847656 -4.476562 9.046875 -4.125 C 9.242188 -3.78125 9.34375 -3.242188 9.34375 -2.515625 L 9.34375 -1.8125 C 9.34375 -1.34375 9.363281 -1.019531 9.40625 -0.84375 C 9.457031 -0.582031 9.585938 -0.390625 9.796875 -0.265625 L 9.796875 0 L 7.421875 0 C 7.347656 -0.226562 7.300781 -0.414062 7.28125 -0.5625 C 7.21875 -0.84375 7.1875 -1.140625 7.1875 -1.453125 L 7.171875 -2.40625 C 7.160156 -3.070312 7.035156 -3.515625 6.796875 -3.734375 C 6.566406 -3.953125 6.132812 -4.0625 5.5 -4.0625 Z M 6.8125 -5.953125 C 7.25 -6.148438 7.46875 -6.539062 7.46875 -7.125 C 7.46875 -7.75 7.257812 -8.171875 6.84375 -8.390625 C 6.601562 -8.503906 6.25 -8.5625 5.78125 -8.5625 L 3.265625 -8.5625 L 3.265625 -5.78125 L 5.71875 -5.78125 C 6.207031 -5.78125 6.570312 -5.835938 6.8125 -5.953125 Z M 6.8125 -5.953125 "/>
</g>
<g id="glyph-1-9">
<path d="M 5.859375 -1.078125 C 5.835938 -1.054688 5.785156 -0.988281 5.703125 -0.875 C 5.628906 -0.757812 5.539062 -0.65625 5.4375 -0.5625 C 5.125 -0.28125 4.820312 -0.0859375 4.53125 0.015625 C 4.238281 0.117188 3.894531 0.171875 3.5 0.171875 C 2.363281 0.171875 1.597656 -0.238281 1.203125 -1.0625 C 0.984375 -1.507812 0.875 -2.171875 0.875 -3.046875 L 0.875 -7.671875 L 2.9375 -7.671875 L 2.9375 -3.046875 C 2.9375 -2.609375 2.988281 -2.28125 3.09375 -2.0625 C 3.269531 -1.675781 3.628906 -1.484375 4.171875 -1.484375 C 4.847656 -1.484375 5.316406 -1.757812 5.578125 -2.3125 C 5.703125 -2.601562 5.765625 -3 5.765625 -3.5 L 5.765625 -7.671875 L 7.796875 -7.671875 L 7.796875 0 L 5.859375 0 Z M 5.859375 -1.078125 "/>
</g>
<g id="glyph-1-10">
<path d="M 4.546875 -6.1875 C 3.867188 -6.1875 3.398438 -5.894531 3.140625 -5.3125 C 3.015625 -5.007812 2.953125 -4.625 2.953125 -4.15625 L 2.953125 0 L 0.953125 0 L 0.953125 -7.65625 L 2.890625 -7.65625 L 2.890625 -6.53125 C 3.140625 -6.925781 3.378906 -7.210938 3.609375 -7.390625 C 4.023438 -7.691406 4.550781 -7.84375 5.1875 -7.84375 C 5.976562 -7.84375 6.625 -7.632812 7.125 -7.21875 C 7.632812 -6.8125 7.890625 -6.125 7.890625 -5.15625 L 7.890625 0 L 5.828125 0 L 5.828125 -4.65625 C 5.828125 -5.0625 5.773438 -5.375 5.671875 -5.59375 C 5.472656 -5.988281 5.097656 -6.1875 4.546875 -6.1875 Z M 4.546875 -6.1875 "/>
</g>
<g id="glyph-1-11">
<path d="M 4.453125 -1.421875 L 4.453125 0.078125 L 3.5 0.109375 C 2.550781 0.140625 1.898438 -0.0234375 1.546875 -0.390625 C 1.328125 -0.617188 1.21875 -0.972656 1.21875 -1.453125 L 1.21875 -6.171875 L 0.140625 -6.171875 L 0.140625 -7.59375 L 1.21875 -7.59375 L 1.21875 -9.734375 L 3.203125 -9.734375 L 3.203125 -7.59375 L 4.453125 -7.59375 L 4.453125 -6.171875 L 3.203125 -6.171875 L 3.203125 -2.125 C 3.203125 -1.800781 3.238281 -1.597656 3.3125 -1.515625 C 3.394531 -1.441406 3.640625 -1.40625 4.046875 -1.40625 C 4.109375 -1.40625 4.171875 -1.40625 4.234375 -1.40625 C 4.304688 -1.414062 4.378906 -1.421875 4.453125 -1.421875 Z M 4.453125 -1.421875 "/>
</g>
<g id="glyph-1-12">
<path d="M 5.234375 -5.5625 C 5.066406 -5.925781 4.738281 -6.109375 4.25 -6.109375 C 3.675781 -6.109375 3.289062 -5.925781 3.09375 -5.5625 C 2.988281 -5.34375 2.9375 -5.023438 2.9375 -4.609375 L 2.9375 0 L 0.90625 0 L 0.90625 -7.65625 L 2.84375 -7.65625 L 2.84375 -6.53125 C 3.09375 -6.925781 3.328125 -7.210938 3.546875 -7.390625 C 3.941406 -7.691406 4.445312 -7.84375 5.0625 -7.84375 C 5.644531 -7.84375 6.117188 -7.710938 6.484375 -7.453125 C 6.773438 -7.210938 6.992188 -6.90625 7.140625 -6.53125 C 7.410156 -6.976562 7.738281 -7.304688 8.125 -7.515625 C 8.539062 -7.734375 9 -7.84375 9.5 -7.84375 C 9.84375 -7.84375 10.175781 -7.773438 10.5 -7.640625 C 10.832031 -7.503906 11.128906 -7.273438 11.390625 -6.953125 C 11.609375 -6.679688 11.753906 -6.351562 11.828125 -5.96875 C 11.878906 -5.707031 11.90625 -5.328125 11.90625 -4.828125 L 11.890625 0 L 9.828125 0 L 9.828125 -4.875 C 9.828125 -5.164062 9.78125 -5.40625 9.6875 -5.59375 C 9.507812 -5.957031 9.179688 -6.140625 8.703125 -6.140625 C 8.148438 -6.140625 7.769531 -5.90625 7.5625 -5.4375 C 7.457031 -5.195312 7.40625 -4.90625 7.40625 -4.5625 L 7.40625 0 L 5.375 0 L 5.375 -4.5625 C 5.375 -5.019531 5.328125 -5.351562 5.234375 -5.5625 Z M 5.234375 -5.5625 "/>
</g>
<g id="glyph-1-13">
<path d="M 7.328125 -6.703125 C 7.972656 -5.890625 8.296875 -4.925781 8.296875 -3.8125 C 8.296875 -2.6875 7.972656 -1.722656 7.328125 -0.921875 C 6.679688 -0.128906 5.695312 0.265625 4.375 0.265625 C 3.0625 0.265625 2.082031 -0.128906 1.4375 -0.921875 C 0.789062 -1.722656 0.46875 -2.6875 0.46875 -3.8125 C 0.46875 -4.925781 0.789062 -5.882812 1.4375 -6.6875 C 2.082031 -7.5 3.0625 -7.90625 4.375 -7.90625 C 5.695312 -7.90625 6.679688 -7.503906 7.328125 -6.703125 Z M 4.375 -6.21875 C 3.789062 -6.21875 3.335938 -6.007812 3.015625 -5.59375 C 2.703125 -5.175781 2.546875 -4.582031 2.546875 -3.8125 C 2.546875 -3.050781 2.703125 -2.457031 3.015625 -2.03125 C 3.335938 -1.613281 3.789062 -1.40625 4.375 -1.40625 C 4.957031 -1.40625 5.40625 -1.613281 5.71875 -2.03125 C 6.039062 -2.457031 6.203125 -3.050781 6.203125 -3.8125 C 6.203125 -4.582031 6.039062 -5.175781 5.71875 -5.59375 C 5.40625 -6.007812 4.957031 -6.21875 4.375 -6.21875 Z M 4.375 -6.21875 "/>
</g>
<g id="glyph-2-0">
<path d="M 0.328125 0 L 0.328125 -7.3125 L 6.140625 -7.3125 L 6.140625 0 Z M 5.21875 -0.921875 L 5.21875 -6.40625 L 1.25 -6.40625 L 1.25 -0.921875 Z M 5.21875 -0.921875 "/>
</g>
<g id="glyph-2-1">
<path d="M 3.375 -2.53125 L 3.375 -5.765625 L 1.09375 -2.53125 Z M 3.390625 0 L 3.390625 -1.75 L 0.265625 -1.75 L 0.265625 -2.625 L 3.53125 -7.15625 L 4.28125 -7.15625 L 4.28125 -2.53125 L 5.328125 -2.53125 L 5.328125 -1.75 L 4.28125 -1.75 L 4.28125 0 Z M 3.390625 0 "/>
</g>
<g id="glyph-2-2">
<path d="M 0.3125 0 C 0.351562 -0.613281 0.484375 -1.144531 0.703125 -1.59375 C 0.921875 -2.050781 1.351562 -2.46875 2 -2.84375 L 2.953125 -3.390625 C 3.378906 -3.640625 3.675781 -3.851562 3.84375 -4.03125 C 4.125 -4.3125 4.265625 -4.628906 4.265625 -4.984375 C 4.265625 -5.398438 4.140625 -5.726562 3.890625 -5.96875 C 3.640625 -6.21875 3.304688 -6.34375 2.890625 -6.34375 C 2.273438 -6.34375 1.847656 -6.109375 1.609375 -5.640625 C 1.484375 -5.390625 1.414062 -5.046875 1.40625 -4.609375 L 0.5 -4.609375 C 0.507812 -5.222656 0.625 -5.726562 0.84375 -6.125 C 1.226562 -6.8125 1.910156 -7.15625 2.890625 -7.15625 C 3.710938 -7.15625 4.3125 -6.929688 4.6875 -6.484375 C 5.0625 -6.046875 5.25 -5.554688 5.25 -5.015625 C 5.25 -4.453125 5.046875 -3.96875 4.640625 -3.5625 C 4.410156 -3.320312 3.992188 -3.035156 3.390625 -2.703125 L 2.71875 -2.328125 C 2.394531 -2.140625 2.140625 -1.96875 1.953125 -1.8125 C 1.617188 -1.519531 1.40625 -1.195312 1.3125 -0.84375 L 5.21875 -0.84375 L 5.21875 0 Z M 0.3125 0 "/>
</g>
<g id="glyph-2-3">
<path d="M 2.328125 -7.3125 L 3.078125 -7.3125 L 0.75 0 L 0 0 Z M 2.328125 -7.3125 "/>
</g>
<g id="glyph-2-4">
</g>
<g id="glyph-2-5">
<path d="M 0.875 -6.140625 C 0.894531 -6.515625 0.960938 -6.789062 1.078125 -6.96875 C 1.285156 -7.269531 1.6875 -7.421875 2.28125 -7.421875 C 2.34375 -7.421875 2.398438 -7.414062 2.453125 -7.40625 C 2.515625 -7.40625 2.585938 -7.40625 2.671875 -7.40625 L 2.671875 -6.59375 C 2.578125 -6.59375 2.507812 -6.59375 2.46875 -6.59375 C 2.425781 -6.59375 2.382812 -6.59375 2.34375 -6.59375 C 2.070312 -6.59375 1.910156 -6.519531 1.859375 -6.375 C 1.804688 -6.238281 1.78125 -5.882812 1.78125 -5.3125 L 2.671875 -5.3125 L 2.671875 -4.609375 L 1.765625 -4.609375 L 1.765625 0 L 0.875 0 L 0.875 -4.609375 L 0.140625 -4.609375 L 0.140625 -5.3125 L 0.875 -5.3125 Z M 0.875 -6.140625 "/>
</g>
<g id="glyph-2-6">
<path d="M 1.34375 -1.421875 C 1.34375 -1.160156 1.4375 -0.953125 1.625 -0.796875 C 1.8125 -0.648438 2.035156 -0.578125 2.296875 -0.578125 C 2.617188 -0.578125 2.925781 -0.648438 3.21875 -0.796875 C 3.71875 -1.046875 3.96875 -1.445312 3.96875 -2 L 3.96875 -2.71875 C 3.851562 -2.644531 3.707031 -2.582031 3.53125 -2.53125 C 3.363281 -2.488281 3.195312 -2.457031 3.03125 -2.4375 L 2.484375 -2.375 C 2.160156 -2.332031 1.921875 -2.265625 1.765625 -2.171875 C 1.484375 -2.015625 1.34375 -1.765625 1.34375 -1.421875 Z M 3.515625 -3.234375 C 3.722656 -3.253906 3.863281 -3.34375 3.9375 -3.5 C 3.96875 -3.570312 3.984375 -3.6875 3.984375 -3.84375 C 3.984375 -4.144531 3.875 -4.363281 3.65625 -4.5 C 3.445312 -4.632812 3.140625 -4.703125 2.734375 -4.703125 C 2.265625 -4.703125 1.929688 -4.578125 1.734375 -4.328125 C 1.617188 -4.191406 1.546875 -3.984375 1.515625 -3.703125 L 0.6875 -3.703125 C 0.695312 -4.359375 0.90625 -4.816406 1.3125 -5.078125 C 1.726562 -5.335938 2.207031 -5.46875 2.75 -5.46875 C 3.375 -5.46875 3.882812 -5.347656 4.28125 -5.109375 C 4.664062 -4.867188 4.859375 -4.492188 4.859375 -3.984375 L 4.859375 -0.921875 C 4.859375 -0.828125 4.878906 -0.75 4.921875 -0.6875 C 4.960938 -0.632812 5.039062 -0.609375 5.15625 -0.609375 C 5.195312 -0.609375 5.242188 -0.609375 5.296875 -0.609375 C 5.347656 -0.617188 5.398438 -0.628906 5.453125 -0.640625 L 5.453125 0.03125 C 5.316406 0.0625 5.210938 0.0820312 5.140625 0.09375 C 5.066406 0.101562 4.96875 0.109375 4.84375 0.109375 C 4.53125 0.109375 4.304688 0 4.171875 -0.21875 C 4.097656 -0.332031 4.046875 -0.492188 4.015625 -0.703125 C 3.828125 -0.460938 3.5625 -0.253906 3.21875 -0.078125 C 2.875 0.0859375 2.5 0.171875 2.09375 0.171875 C 1.59375 0.171875 1.1875 0.0234375 0.875 -0.265625 C 0.5625 -0.566406 0.40625 -0.945312 0.40625 -1.40625 C 0.40625 -1.894531 0.554688 -2.273438 0.859375 -2.546875 C 1.171875 -2.816406 1.582031 -2.984375 2.09375 -3.046875 Z M 2.78125 -5.46875 Z M 2.78125 -5.46875 "/>
</g>
<g id="glyph-2-7">
<path d="M 1.1875 -1.671875 C 1.21875 -1.367188 1.296875 -1.140625 1.421875 -0.984375 C 1.640625 -0.691406 2.03125 -0.546875 2.59375 -0.546875 C 2.925781 -0.546875 3.21875 -0.617188 3.46875 -0.765625 C 3.71875 -0.910156 3.84375 -1.132812 3.84375 -1.4375 C 3.84375 -1.664062 3.742188 -1.84375 3.546875 -1.96875 C 3.410156 -2.039062 3.15625 -2.125 2.78125 -2.21875 L 2.0625 -2.390625 C 1.601562 -2.503906 1.269531 -2.632812 1.0625 -2.78125 C 0.675781 -3.019531 0.484375 -3.351562 0.484375 -3.78125 C 0.484375 -4.28125 0.660156 -4.6875 1.015625 -5 C 1.378906 -5.3125 1.867188 -5.46875 2.484375 -5.46875 C 3.296875 -5.46875 3.878906 -5.234375 4.234375 -4.765625 C 4.453125 -4.460938 4.554688 -4.140625 4.546875 -3.796875 L 3.703125 -3.796875 C 3.691406 -4.003906 3.625 -4.191406 3.5 -4.359375 C 3.289062 -4.585938 2.929688 -4.703125 2.421875 -4.703125 C 2.078125 -4.703125 1.816406 -4.632812 1.640625 -4.5 C 1.472656 -4.375 1.390625 -4.207031 1.390625 -4 C 1.390625 -3.769531 1.503906 -3.582031 1.734375 -3.4375 C 1.867188 -3.351562 2.066406 -3.28125 2.328125 -3.21875 L 2.921875 -3.078125 C 3.554688 -2.921875 3.984375 -2.769531 4.203125 -2.625 C 4.554688 -2.394531 4.734375 -2.035156 4.734375 -1.546875 C 4.734375 -1.066406 4.550781 -0.65625 4.1875 -0.3125 C 3.832031 0.0273438 3.285156 0.203125 2.546875 0.203125 C 1.753906 0.203125 1.191406 0.0234375 0.859375 -0.328125 C 0.523438 -0.691406 0.347656 -1.140625 0.328125 -1.671875 Z M 2.515625 -5.46875 Z M 2.515625 -5.46875 "/>
</g>
<g id="glyph-2-8">
<path d="M 0.84375 -6.828125 L 1.75 -6.828125 L 1.75 -5.328125 L 2.59375 -5.328125 L 2.59375 -4.609375 L 1.75 -4.609375 L 1.75 -1.125 C 1.75 -0.9375 1.8125 -0.8125 1.9375 -0.75 C 2 -0.707031 2.113281 -0.6875 2.28125 -0.6875 C 2.320312 -0.6875 2.367188 -0.6875 2.421875 -0.6875 C 2.472656 -0.695312 2.53125 -0.703125 2.59375 -0.703125 L 2.59375 0 C 2.488281 0.03125 2.378906 0.0507812 2.265625 0.0625 C 2.160156 0.0703125 2.039062 0.078125 1.90625 0.078125 C 1.488281 0.078125 1.207031 -0.0234375 1.0625 -0.234375 C 0.914062 -0.453125 0.84375 -0.734375 0.84375 -1.078125 L 0.84375 -4.609375 L 0.109375 -4.609375 L 0.109375 -5.328125 L 0.84375 -5.328125 Z M 0.84375 -6.828125 "/>
</g>
<g id="glyph-2-9">
<path d="M 2.875 -5.453125 C 3.257812 -5.453125 3.628906 -5.363281 3.984375 -5.1875 C 4.335938 -5.007812 4.609375 -4.78125 4.796875 -4.5 C 4.972656 -4.226562 5.09375 -3.914062 5.15625 -3.5625 C 5.207031 -3.3125 5.234375 -2.914062 5.234375 -2.375 L 1.3125 -2.375 C 1.332031 -1.832031 1.460938 -1.398438 1.703125 -1.078125 C 1.941406 -0.753906 2.3125 -0.59375 2.8125 -0.59375 C 3.28125 -0.59375 3.65625 -0.742188 3.9375 -1.046875 C 4.09375 -1.222656 4.207031 -1.429688 4.28125 -1.671875 L 5.15625 -1.671875 C 5.132812 -1.472656 5.054688 -1.253906 4.921875 -1.015625 C 4.796875 -0.773438 4.648438 -0.578125 4.484375 -0.421875 C 4.210938 -0.160156 3.875 0.015625 3.46875 0.109375 C 3.257812 0.160156 3.015625 0.1875 2.734375 0.1875 C 2.078125 0.1875 1.515625 -0.0507812 1.046875 -0.53125 C 0.585938 -1.019531 0.359375 -1.695312 0.359375 -2.5625 C 0.359375 -3.414062 0.585938 -4.109375 1.046875 -4.640625 C 1.515625 -5.179688 2.125 -5.453125 2.875 -5.453125 Z M 4.3125 -3.09375 C 4.269531 -3.476562 4.1875 -3.789062 4.0625 -4.03125 C 3.8125 -4.457031 3.398438 -4.671875 2.828125 -4.671875 C 2.410156 -4.671875 2.0625 -4.519531 1.78125 -4.21875 C 1.507812 -3.925781 1.363281 -3.550781 1.34375 -3.09375 Z M 2.796875 -5.46875 Z M 2.796875 -5.46875 "/>
</g>
<g id="glyph-2-10">
<path d="M 0.6875 -5.328125 L 1.53125 -5.328125 L 1.53125 -4.40625 C 1.601562 -4.59375 1.773438 -4.8125 2.046875 -5.0625 C 2.316406 -5.320312 2.628906 -5.453125 2.984375 -5.453125 C 3.003906 -5.453125 3.035156 -5.453125 3.078125 -5.453125 C 3.117188 -5.453125 3.1875 -5.445312 3.28125 -5.4375 L 3.28125 -4.484375 C 3.226562 -4.492188 3.175781 -4.5 3.125 -4.5 C 3.082031 -4.507812 3.035156 -4.515625 2.984375 -4.515625 C 2.535156 -4.515625 2.1875 -4.367188 1.9375 -4.078125 C 1.695312 -3.785156 1.578125 -3.445312 1.578125 -3.0625 L 1.578125 0 L 0.6875 0 Z M 0.6875 -5.328125 "/>
</g>
</g>
<clipPath id="clip-0">
<path clip-rule="nonzero" d="M 651 43.199219 L 653 43.199219 L 653 338 L 651 338 Z M 651 43.199219 "/>
</clipPath>
<clipPath id="clip-1">
<path clip-rule="nonzero" d="M 174 43.199219 L 176 43.199219 L 176 338 L 174 338 Z M 174 43.199219 "/>
</clipPath>
<clipPath id="clip-2">
<path clip-rule="nonzero" d="M 380 43.199219 L 381 43.199219 L 381 338 L 380 338 Z M 380 43.199219 "/>
</clipPath>
<clipPath id="clip-3">
<path clip-rule="nonzero" d="M 500 43.199219 L 502 43.199219 L 502 338 L 500 338 Z M 500 43.199219 "/>
</clipPath>
<clipPath id="clip-4">
<path clip-rule="nonzero" d="M 585 43.199219 L 587 43.199219 L 587 338 L 585 338 Z M 585 43.199219 "/>
</clipPath>
<clipPath id="clip-5">
<path clip-rule="nonzero" d="M 651 43.199219 L 653 43.199219 L 653 338 L 651 338 Z M 651 43.199219 "/>
</clipPath>
<clipPath id="clip-6">
<path clip-rule="nonzero" d="M 705 43.199219 L 707 43.199219 L 707 338 L 705 338 Z M 705 43.199219 "/>
</clipPath>
</defs>
<rect x="-75.6" y="-41" width="907.2" height="492" fill="rgb(100%, 100%, 100%)" fill-opacity="1"/>
<path fill="none" stroke-width="0.75" stroke-linecap="round" stroke-linejoin="round" stroke="rgb(0%, 0%, 0%)" stroke-opacity="1" stroke-miterlimit="10" d="M 174.957031 338 L 706.292969 338 "/>
<path fill="none" stroke-width="0.75" stroke-linecap="round" stroke-linejoin="round" stroke="rgb(0%, 0%, 0%)" stroke-opacity="1" stroke-miterlimit="10" d="M 174.957031 338 L 174.957031 345.199219 "/>
<path fill="none" stroke-width="0.75" stroke-linecap="round" stroke-linejoin="round" stroke="rgb(0%, 0%, 0%)" stroke-opacity="1" stroke-miterlimit="10" d="M 380.507812 338 L 380.507812 345.199219 "/>
<path fill="none" stroke-width="0.75" stroke-linecap="round" stroke-linejoin="round" stroke="rgb(0%, 0%, 0%)" stroke-opacity="1" stroke-miterlimit="10" d="M 500.746094 338 L 500.746094 345.199219 "/>
<path fill="none" stroke-width="0.75" stroke-linecap="round" stroke-linejoin="round" stroke="rgb(0%, 0%, 0%)" stroke-opacity="1" stroke-miterlimit="10" d="M 586.054688 338 L 586.054688 345.199219 "/>
<path fill="none" stroke-width="0.75" stroke-linecap="round" stroke-linejoin="round" stroke="rgb(0%, 0%, 0%)" stroke-opacity="1" stroke-miterlimit="10" d="M 652.226562 338 L 652.226562 345.199219 "/>
<path fill="none" stroke-width="0.75" stroke-linecap="round" stroke-linejoin="round" stroke="rgb(0%, 0%, 0%)" stroke-opacity="1" stroke-miterlimit="10" d="M 706.292969 338 L 706.292969 345.199219 "/>
<g fill="rgb(0%, 0%, 0%)" fill-opacity="1">
<use xlink:href="#glyph-0-1" x="166.457031" y="363.162109"/>
<use xlink:href="#glyph-0-2" x="173.457031" y="363.162109"/>
<use xlink:href="#glyph-0-3" x="176.457031" y="363.162109"/>
</g>
<g fill="rgb(0%, 0%, 0%)" fill-opacity="1">
<use xlink:href="#glyph-0-1" x="372.007812" y="363.162109"/>
<use xlink:href="#glyph-0-2" x="379.007812" y="363.162109"/>
<use xlink:href="#glyph-0-4" x="382.007812" y="363.162109"/>
</g>
<g fill="rgb(0%, 0%, 0%)" fill-opacity="1">
<use xlink:href="#glyph-0-1" x="492.246094" y="363.162109"/>
<use xlink:href="#glyph-0-2" x="499.246094" y="363.162109"/>
<use xlink:href="#glyph-0-5" x="502.246094" y="363.162109"/>
</g>
<g fill="rgb(0%, 0%, 0%)" fill-opacity="1">
<use xlink:href="#glyph-0-1" x="577.554688" y="363.162109"/>
<use xlink:href="#glyph-0-2" x="584.554688" y="363.162109"/>
<use xlink:href="#glyph-0-6" x="587.554688" y="363.162109"/>
</g>
<g fill="rgb(0%, 0%, 0%)" fill-opacity="1">
<use xlink:href="#glyph-0-7" x="643.726562" y="363.162109"/>
<use xlink:href="#glyph-0-2" x="650.726562" y="363.162109"/>
<use xlink:href="#glyph-0-1" x="653.726562" y="363.162109"/>
</g>
<g fill="rgb(0%, 0%, 0%)" fill-opacity="1">
<use xlink:href="#glyph-0-7" x="697.792969" y="363.162109"/>
<use xlink:href="#glyph-0-2" x="704.792969" y="363.162109"/>
<use xlink:href="#glyph-0-3" x="707.792969" y="363.162109"/>
</g>
<path fill="none" stroke-width="0.75" stroke-linecap="round" stroke-linejoin="round" stroke="rgb(0%, 0%, 0%)" stroke-opacity="1" stroke-miterlimit="10" d="M 115.199219 338 L 741.601562 338 L 741.601562 43.199219 L 115.199219 43.199219 Z M 115.199219 338 "/>
<g fill="rgb(0%, 0%, 0%)" fill-opacity="1">
<use xlink:href="#glyph-1-1" x="354.898438" y="26.189453"/>
<use xlink:href="#glyph-1-2" x="364.898438" y="26.189453"/>
<use xlink:href="#glyph-1-3" x="372.898438" y="26.189453"/>
<use xlink:href="#glyph-1-4" x="376.898438" y="26.189453"/>
<use xlink:href="#glyph-1-5" x="382.898438" y="26.189453"/>
<use xlink:href="#glyph-1-6" x="390.898438" y="26.189453"/>
<use xlink:href="#glyph-1-7" x="399.898438" y="26.189453"/>
<use xlink:href="#glyph-1-8" x="403.898438" y="26.189453"/>
<use xlink:href="#glyph-1-9" x="413.898438" y="26.189453"/>
<use xlink:href="#glyph-1-10" x="422.898438" y="26.189453"/>
<use xlink:href="#glyph-1-11" x="431.898438" y="26.189453"/>
<use xlink:href="#glyph-1-3" x="436.898438" y="26.189453"/>
<use xlink:href="#glyph-1-12" x="440.898438" y="26.189453"/>
<use xlink:href="#glyph-1-5" x="453.898438" y="26.189453"/>
<use xlink:href="#glyph-1-7" x="461.898438" y="26.189453"/>
<use xlink:href="#glyph-1-8" x="465.898438" y="26.189453"/>
<use xlink:href="#glyph-1-2" x="475.898438" y="26.189453"/>
<use xlink:href="#glyph-1-11" x="483.898438" y="26.189453"/>
<use xlink:href="#glyph-1-3" x="488.898438" y="26.189453"/>
<use xlink:href="#glyph-1-13" x="492.898438" y="26.189453"/>
</g>
<g fill="rgb(0%, 0%, 0%)" fill-opacity="1">
<use xlink:href="#glyph-0-8" x="323.398438" y="391.958984"/>
<use xlink:href="#glyph-0-9" x="332.398438" y="391.958984"/>
<use xlink:href="#glyph-0-10" x="339.398438" y="391.958984"/>
<use xlink:href="#glyph-0-11" x="346.398438" y="391.958984"/>
<use xlink:href="#glyph-0-12" x="349.398438" y="391.958984"/>
<use xlink:href="#glyph-0-13" x="352.398438" y="391.958984"/>
<use xlink:href="#glyph-0-14" x="362.398438" y="391.958984"/>
<use xlink:href="#glyph-0-15" x="369.398438" y="391.958984"/>
<use xlink:href="#glyph-0-16" x="372.398438" y="391.958984"/>
<use xlink:href="#glyph-0-17" x="376.398438" y="391.958984"/>
<use xlink:href="#glyph-0-11" x="383.398438" y="391.958984"/>
<use xlink:href="#glyph-0-12" x="386.398438" y="391.958984"/>
<use xlink:href="#glyph-0-18" x="389.398438" y="391.958984"/>
<use xlink:href="#glyph-0-19" x="396.398438" y="391.958984"/>
<use xlink:href="#glyph-0-15" x="399.398438" y="391.958984"/>
<use xlink:href="#glyph-0-20" x="402.398438" y="391.958984"/>
<use xlink:href="#glyph-0-21" x="408.398438" y="391.958984"/>
<use xlink:href="#glyph-0-16" x="414.398438" y="391.958984"/>
<use xlink:href="#glyph-0-14" x="418.398438" y="391.958984"/>
<use xlink:href="#glyph-0-14" x="425.398438" y="391.958984"/>
<use xlink:href="#glyph-0-10" x="432.398438" y="391.958984"/>
<use xlink:href="#glyph-0-14" x="439.398438" y="391.958984"/>
<use xlink:href="#glyph-0-22" x="446.398438" y="391.958984"/>
<use xlink:href="#glyph-0-15" x="453.398438" y="391.958984"/>
<use xlink:href="#glyph-0-23" x="456.398438" y="391.958984"/>
<use xlink:href="#glyph-0-15" x="459.398438" y="391.958984"/>
<use xlink:href="#glyph-0-24" x="462.398438" y="391.958984"/>
<use xlink:href="#glyph-0-9" x="465.398438" y="391.958984"/>
<use xlink:href="#glyph-0-25" x="472.398438" y="391.958984"/>
<use xlink:href="#glyph-0-25" x="475.398438" y="391.958984"/>
<use xlink:href="#glyph-0-26" x="478.398438" y="391.958984"/>
<use xlink:href="#glyph-0-15" x="481.398438" y="391.958984"/>
<use xlink:href="#glyph-0-25" x="484.398438" y="391.958984"/>
<use xlink:href="#glyph-0-18" x="487.398438" y="391.958984"/>
<use xlink:href="#glyph-0-27" x="494.398438" y="391.958984"/>
<use xlink:href="#glyph-0-15" x="501.398438" y="391.958984"/>
<use xlink:href="#glyph-0-20" x="504.398438" y="391.958984"/>
<use xlink:href="#glyph-0-21" x="510.398438" y="391.958984"/>
<use xlink:href="#glyph-0-17" x="516.398438" y="391.958984"/>
<use xlink:href="#glyph-0-25" x="523.398438" y="391.958984"/>
<use xlink:href="#glyph-0-14" x="526.398438" y="391.958984"/>
</g>
<g clip-path="url(#clip-0)">
<path fill="none" stroke-width="0.75" stroke-linecap="round" stroke-linejoin="round" stroke="rgb(33.333333%, 33.333333%, 33.333333%)" stroke-opacity="1" stroke-dasharray="3 3" stroke-miterlimit="10" d="M 652.226562 338 L 652.226562 43.199219 "/>
</g>
<path fill-rule="nonzero" fill="rgb(40%, 40%, 40%)" fill-opacity="0.54902" d="M 260.625 283.40625 C 260.625 286.289062 256.304688 286.289062 256.304688 283.40625 C 256.304688 280.527344 260.625 280.527344 260.625 283.40625 "/>
<path fill-rule="nonzero" fill="rgb(40%, 40%, 40%)" fill-opacity="0.54902" d="M 281.484375 282.210938 C 281.484375 285.089844 277.164062 285.089844 277.164062 282.210938 C 277.164062 279.328125 281.484375 279.328125 281.484375 282.210938 "/>
<path fill-rule="nonzero" fill="rgb(40%, 40%, 40%)" fill-opacity="0.54902" d="M 296.996094 281.011719 C 296.996094 283.890625 292.675781 283.890625 292.675781 281.011719 C 292.675781 278.128906 296.996094 278.128906 296.996094 281.011719 "/>
<path fill-rule="nonzero" fill="rgb(40%, 40%, 40%)" fill-opacity="0.54902" d="M 321.800781 279.8125 C 321.800781 282.691406 317.480469 282.691406 317.480469 279.8125 C 317.480469 276.933594 321.800781 276.933594 321.800781 279.8125 "/>
<path fill-rule="nonzero" fill="rgb(40%, 40%, 40%)" fill-opacity="0.54902" d="M 319.652344 278.613281 C 319.652344 281.492188 315.332031 281.492188 315.332031 278.613281 C 315.332031 275.734375 319.652344 275.734375 319.652344 278.613281 "/>
<path fill-rule="nonzero" fill="rgb(40%, 40%, 40%)" fill-opacity="0.54902" d="M 324.214844 277.414062 C 324.214844 280.296875 319.894531 280.296875 319.894531 277.414062 C 319.894531 274.535156 324.214844 274.535156 324.214844 277.414062 "/>
<path fill-rule="nonzero" fill="rgb(40%, 40%, 40%)" fill-opacity="0.54902" d="M 279.726562 276.21875 C 279.726562 279.097656 275.40625 279.097656 275.40625 276.21875 C 275.40625 273.335938 279.726562 273.335938 279.726562 276.21875 "/>
<path fill-rule="nonzero" fill="rgb(40%, 40%, 40%)" fill-opacity="0.54902" d="M 275.046875 275.019531 C 275.046875 277.898438 270.726562 277.898438 270.726562 275.019531 C 270.726562 272.140625 275.046875 272.140625 275.046875 275.019531 "/>
<path fill-rule="nonzero" fill="rgb(40%, 40%, 40%)" fill-opacity="0.54902" d="M 278.0625 273.820312 C 278.0625 276.699219 273.742188 276.699219 273.742188 273.820312 C 273.742188 270.941406 278.0625 270.941406 278.0625 273.820312 "/>
<path fill-rule="nonzero" fill="rgb(40%, 40%, 40%)" fill-opacity="0.54902" d="M 270.96875 272.621094 C 270.96875 275.503906 266.648438 275.503906 266.648438 272.621094 C 266.648438 269.742188 270.96875 269.742188 270.96875 272.621094 "/>
<path fill-rule="nonzero" fill="rgb(40%, 40%, 40%)" fill-opacity="0.54902" d="M 307.523438 271.421875 C 307.523438 274.304688 303.203125 274.304688 303.203125 271.421875 C 303.203125 268.542969 307.523438 268.542969 307.523438 271.421875 "/>
<path fill-rule="nonzero" fill="rgb(40%, 40%, 40%)" fill-opacity="0.54902" d="M 309.128906 270.226562 C 309.128906 273.105469 304.808594 273.105469 304.808594 270.226562 C 304.808594 267.34375 309.128906 267.34375 309.128906 270.226562 "/>
<path fill-rule="nonzero" fill="rgb(40%, 40%, 40%)" fill-opacity="0.54902" d="M 254.191406 269.027344 C 254.191406 271.90625 249.871094 271.90625 249.871094 269.027344 C 249.871094 266.148438 254.191406 266.148438 254.191406 269.027344 "/>
<path fill-rule="nonzero" fill="rgb(40%, 40%, 40%)" fill-opacity="0.54902" d="M 251.613281 267.828125 C 251.613281 270.707031 247.292969 270.707031 247.292969 267.828125 C 247.292969 264.949219 251.613281 264.949219 251.613281 267.828125 "/>
<path fill-rule="nonzero" fill="rgb(40%, 40%, 40%)" fill-opacity="0.54902" d="M 268.664062 266.628906 C 268.664062 269.511719 264.34375 269.511719 264.34375 266.628906 C 264.34375 263.75 268.664062 263.75 268.664062 266.628906 "/>
<path fill-rule="nonzero" fill="rgb(40%, 40%, 40%)" fill-opacity="0.54902" d="M 406.070312 265.433594 C 406.070312 268.3125 401.75 268.3125 401.75 265.433594 C 401.75 262.550781 406.070312 262.550781 406.070312 265.433594 "/>
<path fill-rule="nonzero" fill="rgb(40%, 40%, 40%)" fill-opacity="0.54902" d="M 414.132812 264.234375 C 414.132812 267.113281 409.8125 267.113281 409.8125 264.234375 C 409.8125 261.351562 414.132812 261.351562 414.132812 264.234375 "/>
<path fill-rule="nonzero" fill="rgb(40%, 40%, 40%)" fill-opacity="0.54902" d="M 359.191406 263.035156 C 359.191406 265.914062 354.871094 265.914062 354.871094 263.035156 C 354.871094 260.15625 359.191406 260.15625 359.191406 263.035156 "/>
<path fill-rule="nonzero" fill="rgb(40%, 40%, 40%)" fill-opacity="0.54902" d="M 229.992188 261.835938 C 229.992188 264.714844 225.671875 264.714844 225.671875 261.835938 C 225.671875 258.957031 229.992188 258.957031 229.992188 261.835938 "/>
<path fill-rule="nonzero" fill="rgb(40%, 40%, 40%)" fill-opacity="0.54902" d="M 226.449219 260.636719 C 226.449219 263.519531 222.128906 263.519531 222.128906 260.636719 C 222.128906 257.757812 226.449219 257.757812 226.449219 260.636719 "/>
<path fill-rule="nonzero" fill="rgb(40%, 40%, 40%)" fill-opacity="0.54902" d="M 224.605469 259.441406 C 224.605469 262.320312 220.285156 262.320312 220.285156 259.441406 C 220.285156 256.558594 224.605469 256.558594 224.605469 259.441406 "/>
<path fill-rule="nonzero" fill="rgb(40%, 40%, 40%)" fill-opacity="0.54902" d="M 289.351562 258.242188 C 289.351562 261.121094 285.035156 261.121094 285.035156 258.242188 C 285.035156 255.363281 289.351562 255.363281 289.351562 258.242188 "/>
<path fill-rule="nonzero" fill="rgb(40%, 40%, 40%)" fill-opacity="0.54902" d="M 283.738281 257.042969 C 283.738281 259.921875 279.417969 259.921875 279.417969 257.042969 C 279.417969 254.164062 283.738281 254.164062 283.738281 257.042969 "/>
<path fill-rule="nonzero" fill="rgb(40%, 40%, 40%)" fill-opacity="0.54902" d="M 281.542969 255.84375 C 281.542969 258.726562 277.222656 258.726562 277.222656 255.84375 C 277.222656 252.964844 281.542969 252.964844 281.542969 255.84375 "/>
<path fill-rule="nonzero" fill="rgb(40%, 40%, 40%)" fill-opacity="0.54902" d="M 559.734375 254.644531 C 559.734375 257.527344 555.414062 257.527344 555.414062 254.644531 C 555.414062 251.765625 559.734375 251.765625 559.734375 254.644531 "/>
<path fill-rule="nonzero" fill="rgb(40%, 40%, 40%)" fill-opacity="0.54902" d="M 587.867188 253.449219 C 587.867188 256.328125 583.546875 256.328125 583.546875 253.449219 C 583.546875 250.566406 587.867188 250.566406 587.867188 253.449219 "/>
<path fill-rule="nonzero" fill="rgb(40%, 40%, 40%)" fill-opacity="0.54902" d="M 545.660156 252.25 C 545.660156 255.128906 541.339844 255.128906 541.339844 252.25 C 541.339844 249.371094 545.660156 249.371094 545.660156 252.25 "/>
<path fill-rule="nonzero" fill="rgb(40%, 40%, 40%)" fill-opacity="0.54902" d="M 503.386719 251.050781 C 503.386719 253.929688 499.066406 253.929688 499.066406 251.050781 C 499.066406 248.171875 503.386719 248.171875 503.386719 251.050781 "/>
<path fill-rule="nonzero" fill="rgb(40%, 40%, 40%)" fill-opacity="0.54902" d="M 502.492188 249.851562 C 502.492188 252.734375 498.171875 252.734375 498.171875 249.851562 C 498.171875 246.972656 502.492188 246.972656 502.492188 249.851562 "/>
<path fill-rule="nonzero" fill="rgb(40%, 40%, 40%)" fill-opacity="0.54902" d="M 510.25 248.65625 C 510.25 251.535156 505.929688 251.535156 505.929688 248.65625 C 505.929688 245.773438 510.25 245.773438 510.25 248.65625 "/>
<path fill-rule="nonzero" fill="rgb(40%, 40%, 40%)" fill-opacity="0.54902" d="M 503.019531 247.457031 C 503.019531 250.335938 498.703125 250.335938 498.703125 247.457031 C 498.703125 244.578125 503.019531 244.578125 503.019531 247.457031 "/>
<path fill-rule="nonzero" fill="rgb(40%, 40%, 40%)" fill-opacity="0.54902" d="M 501.613281 246.257812 C 501.613281 249.136719 497.292969 249.136719 497.292969 246.257812 C 497.292969 243.378906 501.613281 243.378906 501.613281 246.257812 "/>
<path fill-rule="nonzero" fill="rgb(40%, 40%, 40%)" fill-opacity="0.54902" d="M 503.964844 245.058594 C 503.964844 247.9375 499.644531 247.9375 499.644531 245.058594 C 499.644531 242.179688 503.964844 242.179688 503.964844 245.058594 "/>
<path fill-rule="nonzero" fill="rgb(40%, 40%, 40%)" fill-opacity="0.54902" d="M 492.894531 243.859375 C 492.894531 246.742188 488.574219 246.742188 488.574219 243.859375 C 488.574219 240.980469 492.894531 240.980469 492.894531 243.859375 "/>
<path fill-rule="nonzero" fill="rgb(40%, 40%, 40%)" fill-opacity="0.54902" d="M 501.085938 242.664062 C 501.085938 245.542969 496.765625 245.542969 496.765625 242.664062 C 496.765625 239.78125 501.085938 239.78125 501.085938 242.664062 "/>
<path fill-rule="nonzero" fill="rgb(40%, 40%, 40%)" fill-opacity="0.54902" d="M 500.617188 241.464844 C 500.617188 244.34375 496.300781 244.34375 496.300781 241.464844 C 496.300781 238.585938 500.617188 238.585938 500.617188 241.464844 "/>
<path fill-rule="nonzero" fill="rgb(40%, 40%, 40%)" fill-opacity="0.54902" d="M 220.023438 240.265625 C 220.023438 243.144531 215.703125 243.144531 215.703125 240.265625 C 215.703125 237.386719 220.023438 237.386719 220.023438 240.265625 "/>
<path fill-rule="nonzero" fill="rgb(40%, 40%, 40%)" fill-opacity="0.54902" d="M 206.730469 239.066406 C 206.730469 241.949219 202.414062 241.949219 202.414062 239.066406 C 202.414062 236.1875 206.730469 236.1875 206.730469 239.066406 "/>
<path fill-rule="nonzero" fill="rgb(40%, 40%, 40%)" fill-opacity="0.54902" d="M 226.78125 237.871094 C 226.78125 240.75 222.460938 240.75 222.460938 237.871094 C 222.460938 234.988281 226.78125 234.988281 226.78125 237.871094 "/>
<path fill-rule="nonzero" fill="rgb(40%, 40%, 40%)" fill-opacity="0.54902" d="M 604.917969 236.671875 C 604.917969 239.550781 600.597656 239.550781 600.597656 236.671875 C 600.597656 233.789062 604.917969 233.789062 604.917969 236.671875 "/>
<path fill-rule="nonzero" fill="rgb(40%, 40%, 40%)" fill-opacity="0.54902" d="M 595.753906 235.472656 C 595.753906 238.351562 591.433594 238.351562 591.433594 235.472656 C 591.433594 232.59375 595.753906 232.59375 595.753906 235.472656 "/>
<path fill-rule="nonzero" fill="rgb(40%, 40%, 40%)" fill-opacity="0.54902" d="M 611.71875 234.273438 C 611.71875 237.152344 607.398438 237.152344 607.398438 234.273438 C 607.398438 231.394531 611.71875 231.394531 611.71875 234.273438 "/>
<path fill="none" stroke-width="2.25" stroke-linecap="round" stroke-linejoin="round" stroke="rgb(80%, 20%, 6.666667%)" stroke-opacity="1" stroke-miterlimit="10" d="M 279.324219 258.839844 L 490.734375 258.839844 "/>
<path fill-rule="nonzero" fill="rgb(80%, 20%, 6.666667%)" fill-opacity="1" d="M 310.75 258.839844 C 310.75 263.878906 303.1875 263.878906 303.1875 258.839844 C 303.1875 253.800781 310.75 253.800781 310.75 258.839844 "/>
<g fill="rgb(20%, 20%, 20%)" fill-opacity="1">
<use xlink:href="#glyph-2-1" x="662.398438" y="232.669922"/>
<use xlink:href="#glyph-2-2" x="668.398438" y="232.669922"/>
<use xlink:href="#glyph-2-3" x="674.398438" y="232.669922"/>
<use xlink:href="#glyph-2-1" x="677.398438" y="232.669922"/>
<use xlink:href="#glyph-2-2" x="683.398438" y="232.669922"/>
<use xlink:href="#glyph-2-4" x="689.398438" y="232.669922"/>
<use xlink:href="#glyph-2-5" x="692.398438" y="232.669922"/>
<use xlink:href="#glyph-2-6" x="695.398438" y="232.669922"/>
<use xlink:href="#glyph-2-7" x="701.398438" y="232.669922"/>
<use xlink:href="#glyph-2-8" x="706.398438" y="232.669922"/>
<use xlink:href="#glyph-2-9" x="709.398438" y="232.669922"/>
<use xlink:href="#glyph-2-10" x="715.398438" y="232.669922"/>
</g>
<path fill-rule="nonzero" fill="rgb(40%, 40%, 40%)" fill-opacity="0.54902" d="M 364.632812 146.925781 C 364.632812 149.804688 360.3125 149.804688 360.3125 146.925781 C 360.3125 144.046875 364.632812 144.046875 364.632812 146.925781 "/>
<path fill-rule="nonzero" fill="rgb(40%, 40%, 40%)" fill-opacity="0.54902" d="M 369.605469 145.726562 C 369.605469 148.609375 365.285156 148.609375 365.285156 145.726562 C 365.285156 142.847656 369.605469 142.847656 369.605469 145.726562 "/>
<path fill-rule="nonzero" fill="rgb(40%, 40%, 40%)" fill-opacity="0.54902" d="M 371.726562 144.527344 C 371.726562 147.410156 367.40625 147.410156 367.40625 144.527344 C 367.40625 141.648438 371.726562 141.648438 371.726562 144.527344 "/>
<path fill-rule="nonzero" fill="rgb(40%, 40%, 40%)" fill-opacity="0.54902" d="M 406.78125 143.332031 C 406.78125 146.210938 402.460938 146.210938 402.460938 143.332031 C 402.460938 140.449219 406.78125 140.449219 406.78125 143.332031 "/>
<path fill-rule="nonzero" fill="rgb(40%, 40%, 40%)" fill-opacity="0.54902" d="M 410.46875 142.132812 C 410.46875 145.011719 406.148438 145.011719 406.148438 142.132812 C 406.148438 139.253906 410.46875 139.253906 410.46875 142.132812 "/>
<path fill-rule="nonzero" fill="rgb(40%, 40%, 40%)" fill-opacity="0.54902" d="M 412.078125 140.933594 C 412.078125 143.8125 407.757812 143.8125 407.757812 140.933594 C 407.757812 138.054688 412.078125 138.054688 412.078125 140.933594 "/>
<path fill-rule="nonzero" fill="rgb(40%, 40%, 40%)" fill-opacity="0.54902" d="M 353.71875 139.734375 C 353.71875 142.617188 349.398438 142.617188 349.398438 139.734375 C 349.398438 136.855469 353.71875 136.855469 353.71875 139.734375 "/>
<path fill-rule="nonzero" fill="rgb(40%, 40%, 40%)" fill-opacity="0.54902" d="M 356.363281 138.539062 C 356.363281 141.417969 352.042969 141.417969 352.042969 138.539062 C 352.042969 135.65625 356.363281 135.65625 356.363281 138.539062 "/>
<path fill-rule="nonzero" fill="rgb(40%, 40%, 40%)" fill-opacity="0.54902" d="M 360.195312 137.339844 C 360.195312 140.21875 355.875 140.21875 355.875 137.339844 C 355.875 134.457031 360.195312 134.457031 360.195312 137.339844 "/>
<path fill-rule="nonzero" fill="rgb(40%, 40%, 40%)" fill-opacity="0.54902" d="M 425.261719 136.140625 C 425.261719 139.019531 420.941406 139.019531 420.941406 136.140625 C 420.941406 133.261719 425.261719 133.261719 425.261719 136.140625 "/>
<path fill-rule="nonzero" fill="rgb(40%, 40%, 40%)" fill-opacity="0.54902" d="M 415.339844 134.941406 C 415.339844 137.820312 411.019531 137.820312 411.019531 134.941406 C 411.019531 132.0625 415.339844 132.0625 415.339844 134.941406 "/>
<path fill-rule="nonzero" fill="rgb(40%, 40%, 40%)" fill-opacity="0.54902" d="M 402.628906 133.742188 C 402.628906 136.625 398.308594 136.625 398.308594 133.742188 C 398.308594 130.863281 402.628906 130.863281 402.628906 133.742188 "/>
<path fill-rule="nonzero" fill="rgb(40%, 40%, 40%)" fill-opacity="0.54902" d="M 381.640625 132.546875 C 381.640625 135.425781 377.320312 135.425781 377.320312 132.546875 C 377.320312 129.664062 381.640625 129.664062 381.640625 132.546875 "/>
<path fill-rule="nonzero" fill="rgb(40%, 40%, 40%)" fill-opacity="0.54902" d="M 383.730469 131.347656 C 383.730469 134.226562 379.410156 134.226562 379.410156 131.347656 C 379.410156 128.46875 383.730469 128.46875 383.730469 131.347656 "/>
<path fill-rule="nonzero" fill="rgb(40%, 40%, 40%)" fill-opacity="0.54902" d="M 362.148438 130.148438 C 362.148438 133.027344 357.828125 133.027344 357.828125 130.148438 C 357.828125 127.269531 362.148438 127.269531 362.148438 130.148438 "/>
<path fill-rule="nonzero" fill="rgb(40%, 40%, 40%)" fill-opacity="0.54902" d="M 240.769531 128.949219 C 240.769531 131.832031 236.449219 131.832031 236.449219 128.949219 C 236.449219 126.070312 240.769531 126.070312 240.769531 128.949219 "/>
<path fill-rule="nonzero" fill="rgb(40%, 40%, 40%)" fill-opacity="0.54902" d="M 213.101562 127.75 C 213.101562 130.632812 208.78125 130.632812 208.78125 127.75 C 208.78125 124.871094 213.101562 124.871094 213.101562 127.75 "/>
<path fill-rule="nonzero" fill="rgb(40%, 40%, 40%)" fill-opacity="0.54902" d="M 219.789062 126.554688 C 219.789062 129.433594 215.46875 129.433594 215.46875 126.554688 C 215.46875 123.671875 219.789062 123.671875 219.789062 126.554688 "/>
<path fill-rule="nonzero" fill="rgb(40%, 40%, 40%)" fill-opacity="0.54902" d="M 266.277344 125.355469 C 266.277344 128.234375 261.957031 128.234375 261.957031 125.355469 C 261.957031 122.476562 266.277344 122.476562 266.277344 125.355469 "/>
<path fill-rule="nonzero" fill="rgb(40%, 40%, 40%)" fill-opacity="0.54902" d="M 284.417969 124.15625 C 284.417969 127.035156 280.097656 127.035156 280.097656 124.15625 C 280.097656 121.277344 284.417969 121.277344 284.417969 124.15625 "/>
<path fill-rule="nonzero" fill="rgb(40%, 40%, 40%)" fill-opacity="0.54902" d="M 285.492188 122.957031 C 285.492188 125.839844 281.171875 125.839844 281.171875 122.957031 C 281.171875 120.078125 285.492188 120.078125 285.492188 122.957031 "/>
<path fill-rule="nonzero" fill="rgb(40%, 40%, 40%)" fill-opacity="0.54902" d="M 258.320312 121.761719 C 258.320312 124.640625 254 124.640625 254 121.761719 C 254 118.878906 258.320312 118.878906 258.320312 121.761719 "/>
<path fill-rule="nonzero" fill="rgb(40%, 40%, 40%)" fill-opacity="0.54902" d="M 235.164062 120.5625 C 235.164062 123.441406 230.84375 123.441406 230.84375 120.5625 C 230.84375 117.683594 235.164062 117.683594 235.164062 120.5625 "/>
<path fill-rule="nonzero" fill="rgb(40%, 40%, 40%)" fill-opacity="0.54902" d="M 226.148438 119.363281 C 226.148438 122.242188 221.828125 122.242188 221.828125 119.363281 C 221.828125 116.484375 226.148438 116.484375 226.148438 119.363281 "/>
<path fill-rule="nonzero" fill="rgb(40%, 40%, 40%)" fill-opacity="0.54902" d="M 574.816406 118.164062 C 574.816406 121.046875 570.496094 121.046875 570.496094 118.164062 C 570.496094 115.285156 574.816406 115.285156 574.816406 118.164062 "/>
<path fill-rule="nonzero" fill="rgb(40%, 40%, 40%)" fill-opacity="0.54902" d="M 537.277344 116.964844 C 537.277344 119.847656 532.957031 119.847656 532.957031 116.964844 C 532.957031 114.085938 537.277344 114.085938 537.277344 116.964844 "/>
<path fill-rule="nonzero" fill="rgb(40%, 40%, 40%)" fill-opacity="0.54902" d="M 543.359375 115.769531 C 543.359375 118.648438 539.039062 118.648438 539.039062 115.769531 C 539.039062 112.886719 543.359375 112.886719 543.359375 115.769531 "/>
<path fill-rule="nonzero" fill="rgb(40%, 40%, 40%)" fill-opacity="0.54902" d="M 554.683594 114.570312 C 554.683594 117.449219 550.363281 117.449219 550.363281 114.570312 C 550.363281 111.691406 554.683594 111.691406 554.683594 114.570312 "/>
<path fill-rule="nonzero" fill="rgb(40%, 40%, 40%)" fill-opacity="0.54902" d="M 569.492188 113.371094 C 569.492188 116.25 565.171875 116.25 565.171875 113.371094 C 565.171875 110.492188 569.492188 110.492188 569.492188 113.371094 "/>
<path fill-rule="nonzero" fill="rgb(40%, 40%, 40%)" fill-opacity="0.54902" d="M 574.011719 112.171875 C 574.011719 115.054688 569.691406 115.054688 569.691406 112.171875 C 569.691406 109.292969 574.011719 109.292969 574.011719 112.171875 "/>
<path fill-rule="nonzero" fill="rgb(40%, 40%, 40%)" fill-opacity="0.54902" d="M 555.285156 110.976562 C 555.285156 113.855469 550.964844 113.855469 550.964844 110.976562 C 550.964844 108.09375 555.285156 108.09375 555.285156 110.976562 "/>
<path fill-rule="nonzero" fill="rgb(40%, 40%, 40%)" fill-opacity="0.54902" d="M 556.03125 109.777344 C 556.03125 112.65625 551.710938 112.65625 551.710938 109.777344 C 551.710938 106.894531 556.03125 106.894531 556.03125 109.777344 "/>
<path fill-rule="nonzero" fill="rgb(40%, 40%, 40%)" fill-opacity="0.54902" d="M 557.871094 108.578125 C 557.871094 111.457031 553.554688 111.457031 553.554688 108.578125 C 553.554688 105.699219 557.871094 105.699219 557.871094 108.578125 "/>
<path fill-rule="nonzero" fill="rgb(40%, 40%, 40%)" fill-opacity="0.54902" d="M 536.675781 107.378906 C 536.675781 110.257812 532.355469 110.257812 532.355469 107.378906 C 532.355469 104.5 536.675781 104.5 536.675781 107.378906 "/>
<path fill-rule="nonzero" fill="rgb(40%, 40%, 40%)" fill-opacity="0.54902" d="M 552.019531 106.179688 C 552.019531 109.0625 547.699219 109.0625 547.699219 106.179688 C 547.699219 103.300781 552.019531 103.300781 552.019531 106.179688 "/>
<path fill-rule="nonzero" fill="rgb(40%, 40%, 40%)" fill-opacity="0.54902" d="M 539.066406 104.984375 C 539.066406 107.863281 534.75 107.863281 534.75 104.984375 C 534.75 102.101562 539.066406 102.101562 539.066406 104.984375 "/>
<path fill-rule="nonzero" fill="rgb(40%, 40%, 40%)" fill-opacity="0.54902" d="M 273.566406 103.785156 C 273.566406 106.664062 269.246094 106.664062 269.246094 103.785156 C 269.246094 100.90625 273.566406 100.90625 273.566406 103.785156 "/>
<path fill-rule="nonzero" fill="rgb(40%, 40%, 40%)" fill-opacity="0.54902" d="M 273.289062 102.585938 C 273.289062 105.464844 268.96875 105.464844 268.96875 102.585938 C 268.96875 99.707031 273.289062 99.707031 273.289062 102.585938 "/>
<path fill-rule="nonzero" fill="rgb(40%, 40%, 40%)" fill-opacity="0.54902" d="M 276.53125 101.386719 C 276.53125 104.269531 272.210938 104.269531 272.210938 101.386719 C 272.210938 98.507812 276.53125 98.507812 276.53125 101.386719 "/>
<path fill-rule="nonzero" fill="rgb(40%, 40%, 40%)" fill-opacity="0.54902" d="M 580.21875 100.1875 C 580.21875 103.070312 575.898438 103.070312 575.898438 100.1875 C 575.898438 97.308594 580.21875 97.308594 580.21875 100.1875 "/>
<path fill-rule="nonzero" fill="rgb(40%, 40%, 40%)" fill-opacity="0.54902" d="M 587.128906 98.992188 C 587.128906 101.871094 582.808594 101.871094 582.808594 98.992188 C 582.808594 96.109375 587.128906 96.109375 587.128906 98.992188 "/>
<path fill-rule="nonzero" fill="rgb(40%, 40%, 40%)" fill-opacity="0.54902" d="M 581.734375 97.792969 C 581.734375 100.671875 577.414062 100.671875 577.414062 97.792969 C 577.414062 94.914062 581.734375 94.914062 581.734375 97.792969 "/>
<path fill="none" stroke-width="2.25" stroke-linecap="round" stroke-linejoin="round" stroke="rgb(80%, 20%, 6.666667%)" stroke-opacity="1" stroke-miterlimit="10" d="M 358.035156 122.359375 L 534.515625 122.359375 "/>
<path fill-rule="nonzero" fill="rgb(80%, 20%, 6.666667%)" fill-opacity="1" d="M 385.347656 122.359375 C 385.347656 127.398438 377.789062 127.398438 377.789062 122.359375 C 377.789062 117.320312 385.347656 117.320312 385.347656 122.359375 "/>
<g fill="rgb(20%, 20%, 20%)" fill-opacity="1">
<use xlink:href="#glyph-2-1" x="662.398438" y="96.185547"/>
<use xlink:href="#glyph-2-2" x="668.398438" y="96.185547"/>
<use xlink:href="#glyph-2-3" x="674.398438" y="96.185547"/>
<use xlink:href="#glyph-2-1" x="677.398438" y="96.185547"/>
<use xlink:href="#glyph-2-2" x="683.398438" y="96.185547"/>
<use xlink:href="#glyph-2-4" x="689.398438" y="96.185547"/>
<use xlink:href="#glyph-2-5" x="692.398438" y="96.185547"/>
<use xlink:href="#glyph-2-6" x="695.398438" y="96.185547"/>
<use xlink:href="#glyph-2-7" x="701.398438" y="96.185547"/>
<use xlink:href="#glyph-2-8" x="706.398438" y="96.185547"/>
<use xlink:href="#glyph-2-9" x="709.398438" y="96.185547"/>
<use xlink:href="#glyph-2-10" x="715.398438" y="96.185547"/>
</g>
<path fill="none" stroke-width="0.75" stroke-linecap="round" stroke-linejoin="round" stroke="rgb(0%, 0%, 0%)" stroke-opacity="1" stroke-miterlimit="10" d="M 115.199219 258.839844 L 115.199219 122.359375 "/>
<path fill="none" stroke-width="0.75" stroke-linecap="round" stroke-linejoin="round" stroke="rgb(0%, 0%, 0%)" stroke-opacity="1" stroke-miterlimit="10" d="M 115.199219 258.839844 L 108 258.839844 "/>
<path fill="none" stroke-width="0.75" stroke-linecap="round" stroke-linejoin="round" stroke="rgb(0%, 0%, 0%)" stroke-opacity="1" stroke-miterlimit="10" d="M 115.199219 122.359375 L 108 122.359375 "/>
<g fill="rgb(0%, 0%, 0%)" fill-opacity="1">
<use xlink:href="#glyph-0-17" x="76.800781" y="262.580078"/>
<use xlink:href="#glyph-0-9" x="83.800781" y="262.580078"/>
<use xlink:href="#glyph-0-11" x="90.800781" y="262.580078"/>
<use xlink:href="#glyph-0-18" x="93.800781" y="262.580078"/>
</g>
<g fill="rgb(0%, 0%, 0%)" fill-opacity="1">
<use xlink:href="#glyph-0-25" x="47.800781" y="126.099609"/>
<use xlink:href="#glyph-0-18" x="50.800781" y="126.099609"/>
<use xlink:href="#glyph-0-21" x="57.800781" y="126.099609"/>
<use xlink:href="#glyph-0-17" x="63.800781" y="126.099609"/>
<use xlink:href="#glyph-0-25" x="70.800781" y="126.099609"/>
<use xlink:href="#glyph-0-2" x="73.800781" y="126.099609"/>
<use xlink:href="#glyph-0-17" x="76.800781" y="126.099609"/>
<use xlink:href="#glyph-0-9" x="83.800781" y="126.099609"/>
<use xlink:href="#glyph-0-11" x="90.800781" y="126.099609"/>
<use xlink:href="#glyph-0-18" x="93.800781" y="126.099609"/>
</g>
<g clip-path="url(#clip-1)">
<path fill="none" stroke-width="0.75" stroke-linecap="round" stroke-linejoin="round" stroke="rgb(90.196078%, 91.372549%, 93.72549%)" stroke-opacity="1" stroke-dasharray="0.75 2.25" stroke-miterlimit="10" d="M 174.957031 338 L 174.957031 43.199219 "/>
</g>
<g clip-path="url(#clip-2)">
<path fill="none" stroke-width="0.75" stroke-linecap="round" stroke-linejoin="round" stroke="rgb(90.196078%, 91.372549%, 93.72549%)" stroke-opacity="1" stroke-dasharray="0.75 2.25" stroke-miterlimit="10" d="M 380.507812 338 L 380.507812 43.199219 "/>
</g>
<g clip-path="url(#clip-3)">
<path fill="none" stroke-width="0.75" stroke-linecap="round" stroke-linejoin="round" stroke="rgb(90.196078%, 91.372549%, 93.72549%)" stroke-opacity="1" stroke-dasharray="0.75 2.25" stroke-miterlimit="10" d="M 500.746094 338 L 500.746094 43.199219 "/>
</g>
<g clip-path="url(#clip-4)">
<path fill="none" stroke-width="0.75" stroke-linecap="round" stroke-linejoin="round" stroke="rgb(90.196078%, 91.372549%, 93.72549%)" stroke-opacity="1" stroke-dasharray="0.75 2.25" stroke-miterlimit="10" d="M 586.054688 338 L 586.054688 43.199219 "/>
</g>
<g clip-path="url(#clip-5)">
<path fill="none" stroke-width="0.75" stroke-linecap="round" stroke-linejoin="round" stroke="rgb(90.196078%, 91.372549%, 93.72549%)" stroke-opacity="1" stroke-dasharray="0.75 2.25" stroke-miterlimit="10" d="M 652.226562 338 L 652.226562 43.199219 "/>
</g>
<g clip-path="url(#clip-6)">
<path fill="none" stroke-width="0.75" stroke-linecap="round" stroke-linejoin="round" stroke="rgb(90.196078%, 91.372549%, 93.72549%)" stroke-opacity="1" stroke-dasharray="0.75 2.25" stroke-miterlimit="10" d="M 706.292969 338 L 706.292969 43.199219 "/>
</g>
</svg>
